<?xml version="1.0" encoding="iso-8859-1"?>
<!-- Generator: Adobe Illustrator 18.0.0, SVG Export Plug-In . SVG Version: 6.00 Build 0)  -->
<!DOCTYPE svg PUBLIC "-//W3C//DTD SVG 1.1//EN" "http://www.w3.org/Graphics/SVG/1.1/DTD/svg11.dtd">
<svg version="1.1" id="Capa_1" xmlns="http://www.w3.org/2000/svg" xmlns:xlink="http://www.w3.org/1999/xlink" x="0px" y="0px"
	 viewBox="0 0 54.006 54.006" style="enable-background:new 0 0 54.006 54.006;" xml:space="preserve">
<path id="XMLID_102_" d="M53.968,3.389l-0.666-2.093c-0.09-0.282-0.311-0.503-0.592-0.592l-2.093-0.666
	c-0.302-0.096-0.632-0.004-0.841,0.235l-3.05,3.491L46.58,4.777L30.929,20.075c-4.458-3.257-9.572-2.719-11.536-0.699
	c-3.695,3.801-1.697,4.343-4.054,6.7c-2.357,2.357-7.568-0.261-13.476,6.176c-3.605,3.928-1.679,11.785,3.213,16.677
	c4.892,4.892,12.75,6.819,16.678,3.214c6.437-5.908,3.819-11.119,6.176-13.476c2.357-2.357,2.899-0.359,6.7-4.054
	c2.02-1.964,2.559-7.078-0.699-11.536L49.229,7.426l1.014-0.146l3.491-3.05C53.972,4.021,54.064,3.691,53.968,3.389z M24.967,33.772
	c-1.307,1.307-3.426,1.307-4.733,0s-1.307-3.426,0-4.733s3.426-1.307,4.733,0S26.273,32.465,24.967,33.772z"/>
<g>
</g>
<g>
</g>
<g>
</g>
<g>
</g>
<g>
</g>
<g>
</g>
<g>
</g>
<g>
</g>
<g>
</g>
<g>
</g>
<g>
</g>
<g>
</g>
<g>
</g>
<g>
</g>
<g>
</g>
</svg>
