<?xml version="1.0" encoding="utf-8"?>
<!-- Generator: Adobe Illustrator 16.0.0, SVG Export Plug-In . SVG Version: 6.00 Build 0)  -->
<!DOCTYPE svg PUBLIC "-//W3C//DTD SVG 1.1//EN" "http://www.w3.org/Graphics/SVG/1.1/DTD/svg11.dtd">
<svg version="1.1" id="Capa_1" xmlns="http://www.w3.org/2000/svg" xmlns:xlink="http://www.w3.org/1999/xlink" x="0px" y="0px"
	 width="191.818px" height="191.818px" viewBox="0 0 191.818 191.818" enable-background="new 0 0 191.818 191.818"
	 xml:space="preserve">
<g>
	<g>
		<path d="M92.607,162.738c0.007-8.526-0.031-17.061,0.403-25.575c0.055-1.07,0.727-2.167,1.86-2.41
			c0.81-0.169,1.616-0.346,2.421-0.531c1.991-0.788,3.338,1.319,2.979,2.991c0.008,0.023,0.025,0.04,0.032,0.064
			c1.99,6.931,1.604,14.226,1.647,21.363c0.011,1.689,0.045,3.383,0.066,5.077c6.364,1.484,11.043,7.344,10.468,14.237
			c-0.633,7.574-7.457,14.144-15.184,13.854c-6.916-0.258-12.778-5.701-14.688-12.015C80.399,172.465,85.217,164.504,92.607,162.738
			z"/>
		<path d="M36.002,88.845c8.06-3.009,14.546-5.683,20.73-12.042c6.834-7.028,11.172-16.231,16.829-24.138
			c9.127-12.757,20.3-24.496,35.52-29.812c6.713-2.344,14.152-2.57,21.369-1.232c1.044,0.089,2.023,0.301,2.936,0.639
			c2.192,0.539,4.354,1.211,6.453,2.016c0.018-0.093,0.036-0.188,0.056-0.282c0.553-2.964,1.68-5.851,3.043-8.603
			c0.406-0.84,0.844-1.679,1.314-2.503c0.441-0.799,0.891-1.589,1.346-2.356c2.355-3.975,6.365-10.275,11.665-10.523
			c6.155-0.289,8.372,7.648,7.922,12.413c-0.737,7.774-7.579,13.32-12.11,19.252c24.222,18.825,19.419,49.916,3.454,72.375
			c-5.309,7.467-10.157,15.01-12.318,23.979c-1.918,7.967-0.34,16.288,0.314,24.312c0.609,7.463-1.037,17.802-9.011,18.196
			c-5.671,2.566-14.135,2.34-20.453-0.947c-1.555-0.811-0.919-3.586,0.932-3.393c5.271,0.556,11.332,1.105,16.498-0.194
			c9.681-2.438-6.589-17.563-9.453-20.142c-12.624-11.364-27.741-20.754-42.007-29.988c-9.2-5.956-18.937-10.957-29.58-13.837
			c-6.349-1.72-24.198-4.261-18.729,7.206c4.244,8.894,13.678,16.729,20.945,23.225c8.628,7.714,18.254,14.269,28.373,19.918
			c3.399,1.897,0.35,7.058-3.061,5.162c-13.29-7.396-25.352-16.448-36.241-26.987c-5.368-5.196-16.151-14.648-17.458-23.576
			C21.09,97.742,26.928,92.232,36.002,88.845z M146.527,25.347c4.349-0.695,8.037-4.286,10.471-7.706
			c1.348-1.892,2.446-4.299,2.067-6.658c-0.319-1.973-1.89-3.05-3.625-2.147c-5.102,2.651-9.229,11.518-10.2,17.093
			C145.559,25.649,145.974,25.436,146.527,25.347z M77.317,57.697c-1.091,1.536-2.123,3.087-3.154,4.633
			c0.004,0.024,0.019,0.045,0.022,0.07c0.013,0.142-0.004,0.28-0.002,0.42c1.587-2.595,3.176-5.091,4.817-7.467
			C78.428,56.14,77.867,56.923,77.317,57.697z M112.156,33.156c-0.06,0.033-0.117,0.061-0.177,0.094
			c-5.115,2.853-10.047,6.253-14.627,10.027c-6.485,7.712-12.719,15.625-19.159,23.36c-2.807,4.818-5.637,9.631-9.299,13.8
			c-0.479,0.544-0.972,1.063-1.475,1.565c1.679,0.785,3.288,1.681,4.914,2.767c5.846,3.904,11.082-3.299,14.899-7.119
			c5.897-5.904,11.331-12.583,15.925-19.532c2.938-4.447,5.648-9.042,8.074-13.78c1.334-2.604,2.446-5.292,3.185-8.118
			C115.086,33.648,113.892,33.214,112.156,33.156z"/>
	</g>
</g>
</svg>
