<?xml version="1.0" encoding="iso-8859-1"?>
<!-- Generator: Adobe Illustrator 18.0.0, SVG Export Plug-In . SVG Version: 6.00 Build 0)  -->
<!DOCTYPE svg PUBLIC "-//W3C//DTD SVG 1.1//EN" "http://www.w3.org/Graphics/SVG/1.1/DTD/svg11.dtd">
<svg version="1.1" id="Capa_1" xmlns="http://www.w3.org/2000/svg" xmlns:xlink="http://www.w3.org/1999/xlink" x="0px" y="0px"
	 viewBox="0 0 63.246 63.246" style="enable-background:new 0 0 63.246 63.246;" xml:space="preserve">
<path id="XMLID_217_" d="M62.048,1.235c-1.664-1.664-4.441-1.584-6.203,0.179c-0.825,0.825-1.266,1.873-1.347,2.924l-1.694-1.694
	c-0.391-0.391-1.023-0.391-1.414,0s-0.391,1.023,0,1.414l1.813,1.813c0.136,0.136,0.304,0.207,0.478,0.248l-1.705,1.423
	c-0.047-0.095-0.099-0.188-0.177-0.267l-1.813-1.813c-0.391-0.391-1.023-0.391-1.414,0c-0.391,0.39-0.391,1.023,0,1.414l1.813,1.813
	c0.036,0.036,0.082,0.051,0.121,0.08l-11.836,9.878c-9.999-6.647-17.61,3.387-17.61,3.387s-1.238,0.472-2.91,0.664
	c-1.506,2.297,2.98,2.106,1.787,4.85c-2.55,5.865-8.106,3.629-9.897,2.714c-0.385-0.197-0.826-0.238-1.24-0.115L7.79,30.447
	c-0.12,0.036-0.193,0.156-0.17,0.278l0.266,1.418c0,0-7.237,1.86-7.811,7.811C-0.41,44.983,1.428,51.62,6.508,56.7
	s11.717,6.918,16.746,6.433c5.951-0.574,7.811-7.811,7.811-7.811l1.418,0.266c0.123,0.023,0.243-0.05,0.278-0.17l0.299-1.007
	c0.123-0.414,0.081-0.855-0.115-1.24c-0.914-1.791-3.15-7.348,2.714-9.897c2.744-1.193,2.553,3.293,4.85,1.787
	c0.191-1.672,0.664-2.91,0.664-2.91s10.034-7.611,3.387-17.61l9.858-11.812c0.003,0.003,0.004,0.008,0.008,0.011l1.813,1.813
	c0.195,0.195,0.451,0.293,0.707,0.293s0.512-0.098,0.707-0.293c0.391-0.391,0.391-1.023,0-1.414l-1.813-1.813
	c-0.048-0.048-0.107-0.071-0.161-0.107l1.351-1.619c0.049,0.117,0.119,0.227,0.214,0.323l1.813,1.813
	c0.195,0.195,0.451,0.293,0.707,0.293s0.512-0.098,0.707-0.293c0.391-0.391,0.391-1.023,0-1.414l-1.532-1.532
	c1.054-0.08,2.105-0.521,2.931-1.348C63.632,5.676,63.712,2.899,62.048,1.235z M17.854,50.832l-1.723,1.723
	c-1.324,1.324-3.471,1.324-4.795,0L10.5,51.718c-1.324-1.324-1.324-3.471,0-4.795l1.723-1.723c0.835-0.835,2.188-0.835,3.023,0
	l2.609,2.609C18.689,48.644,18.689,49.997,17.854,50.832z"/>
<g>
</g>
<g>
</g>
<g>
</g>
<g>
</g>
<g>
</g>
<g>
</g>
<g>
</g>
<g>
</g>
<g>
</g>
<g>
</g>
<g>
</g>
<g>
</g>
<g>
</g>
<g>
</g>
<g>
</g>
</svg>
