<svg xmlns="http://www.w3.org/2000/svg" width="80" height="80"><linearGradient id="a" x1="21.006" x2="59.946" y1="32.931" y2="65.605" gradientUnits="userSpaceOnUse"><stop offset="0" stop-opacity=".2"/><stop offset=".527" stop-opacity="0"/></linearGradient><path fill="url(#a)" d="M66.88 42.23v-1c-.17.02-.34.06-.5.1v-1c-.17.02-.34.06-.5.1v-1c-.17.02-.34.06-.5.1v-1c-.17.02-.34.06-.5.1v-1c-.17.02-.34.06-.5.1v-1c-.17.02-.34.06-.5.1v-1c-.17.02-.34.06-.5.1v-1c-.17.02-.34.06-.5.1v-1c-.17.02-.34.06-.5.1v-1c-.17.02-.34.06-.5.1v-1c-.17.02-.34.06-.5.1v-1c-.17.02-.34.06-.5.1v-1c-.17.02-.34.06-.5.1v-1c-.17.02-.34.06-.5.1v-1c-.17.02-.34.06-.5.1v-1c-.17.02-.34.06-.5.1v-1c-.17.02-.34.06-.5.1v-1c-.17.02-.34.06-.5.1v-1c-.17.02-.34.06-.5.1v-1c-.17.02-.34.06-.5.1v-1c-.17.02-.34.06-.5.1v-1c-.17.02-.34.06-.5.1v-1c-.17.02-.34.06-.5.1v-1c-.17.02-.34.06-.5.1v-1c-.17.02-.34.06-.5.1v-1c-.17.02-.34.06-.5.1v-1c-.17.02-.34.06-.5.1v-1c-.17.02-.34.06-.5.1v-1c-.17.02-.34.06-.5.1v-1c-.23.03-.45.06-.68.13l-19.65 6c-2.38.7-4.3 3.17-4.3 5.55v20.44s0 .28 0 .3c0 0-1.43-.97-4.6-.52-4.65.66-8.43 4.23-8.43 7.98 0 1.08.32 2.03.87 2.83.13.32.3.62.5.9.13.32.3.62.5.9.13.32.3.62.5.9.13.32.3.62.5.9.13.32.3.62.5.9.13.32.3.62.5.9.13.32.3.62.5.9.13.32.3.62.5.9.13.32.3.62.5.9.13.32.3.62.5.9.13.32.3.62.5.9.13.32.3.62.5.9.13.32.3.62.5.9.13.32.3.62.5.9.13.32.3.62.5.9.13.32.3.62.5.9.13.32.3.62.5.9.13.32.3.62.5.9.13.32.3.62.5.9.13.32.3.62.5.9.13.32.3.62.5.9.13.32.3.62.5.9.13.32.3.62.5.9.13.32.3.62.5.9.13.32.3.62.5.9.13.32.3.62.5.9.13.32.3.62.5.9.13.32.3.62.5.9.13.32.3.62.5.9 1.05 2.57 4.26 4 8.05 3.46 4.66-.67 8.08-4.13 8.08-7.88 0 0 0-16.04 0-17.7 0-1.66 2-2.38 2-2.38L65.58 54s1.34-.45 1.77.45V42.12c-.16.03-.33.07-.5.1z"/><linearGradient id="b" x1="34.897" x2="91.662" y1="39.305" y2="79.052" gradientUnits="userSpaceOnUse"><stop offset="0" stop-opacity=".2"/><stop offset=".425" stop-opacity="0"/></linearGradient><path fill="url(#b)" d="M80.26 61.2c-.12-.35-.28-.66-.5-.9-.12-.35-.28-.66-.5-.9-.12-.35-.28-.66-.5-.9-.12-.35-.28-.66-.5-.9-.12-.35-.28-.66-.5-.9-.12-.35-.28-.66-.5-.9-.12-.35-.28-.66-.5-.9-.12-.35-.28-.66-.5-.9-.12-.35-.28-.66-.5-.9-.12-.35-.28-.66-.5-.9-.12-.35-.28-.66-.5-.9-.12-.35-.28-.66-.5-.9-.12-.35-.28-.66-.5-.9-.12-.35-.28-.66-.5-.9-.12-.35-.28-.66-.5-.9-.12-.35-.28-.66-.5-.9-.12-.35-.28-.66-.5-.9-.12-.35-.28-.66-.5-.9-.12-.35-.28-.66-.5-.9-.12-.35-.28-.66-.5-.9-.12-.35-.28-.66-.5-.9-.12-.35-.28-.66-.5-.9-.12-.35-.28-.66-.5-.9-.12-.35-.28-.66-.5-.9-.12-.35-.28-.66-.5-.9-.12-.35-.28-.66-.5-.9-.12-.35-.28-.66-.5-.9-.12-.35-.28-.66-.5-.9-.12-.35-.28-.66-.5-.9-.12-.35-.28-.66-.5-.9-.12-.35-.28-.66-.5-.9-.12-.35-.28-.66-.5-.9-.12-.35-.28-.66-.5-.9-.12-.35-.28-.66-.5-.9-.12-.35-.28-.66-.5-.9-.12-.35-.28-.66-.5-.9-.12-.35-.28-.66-.5-.9-.12-.35-.28-.66-.5-.9-.12-.35-.28-.66-.5-.9-.12-.35-.28-.66-.5-.9-.12-.35-.28-.66-.5-.9-.12-.35-.28-.66-.5-.9-.12-.35-.28-.66-.5-.9-.12-.35-.28-.66-.5-.9-.12-.35-.28-.66-.5-.9-.12-.35-.28-.66-.5-.9-.12-.35-.28-.66-.5-.9-.12-.35-.28-.66-.5-.9-.12-.35-.28-.66-.5-.9-.58-1.55-2.17-2.33-4.06-1.8.23-.05.45-.08.67-.1v.98c-.05.02-.1.02-.17.03.06 0 .1 0 .17-.02V27.5c.1.2.14.4.14.7 0 1.77 0 14.2 0 14.2s-1.75-1-4.93-.63c-4.65.57-8.43 4.07-8.43 7.8 0 1.1.33 2.06.9 2.87.12.32.3.62.5.9.12.32.3.62.5.9.12.32.3.62.5.9.12.32.3.62.5.9.12.32.3.62.5.9.12.32.3.62.5.9.12.32.3.62.5.9.12.32.3.62.5.9.12.32.3.62.5.9.12.32.3.62.5.9.12.32.3.62.5.9.12.32.3.62.5.9.12.32.3.62.5.9.12.32.3.62.5.9.12.32.3.62.5.9.12.32.3.62.5.9.12.32.3.62.5.9.12.32.3.62.5.9.12.32.3.62.5.9.12.32.3.62.5.9.12.32.3.62.5.9.12.32.3.62.5.9.12.32.3.62.5.9.12.32.3.62.5.9.12.32.3.62.5.9.12.32.3.62.5.9.12.32.3.62.5.9.12.32.3.62.5.9.12.32.3.62.5.9.12.32.3.62.5.9.12.32.3.62.5.9.12.32.3.62.5.9.12.32.3.62.5.9.12.32.3.62.5.9.12.32.3.62.5.9.12.32.3.62.5.9.12.32.3.62.5.9.12.32.3.62.5.9.12.32.3.62.5.9.12.32.3.62.5.9.12.32.3.62.5.9.12.32.3.62.5.9.12.32.3.62.5.9.12.32.3.62.5.9.12.32.3.62.5.9.12.32.3.62.5.9.12.32.3.62.5.9.12.32.3.62.5.9.12.32.3.62.48.9 1.08 2.58 4.28 4.06 8.05 3.6 4.66-.56 8.44-4.06 8.44-7.8V63.38c0-.9-.27-1.66-.74-2.2z"/><path fill="#fff" d="M51.7 15.26l-19.65 6c-2.37.7-4.3 3.17-4.3 5.55v20.45s0 .27 0 .28c0 0-1.43-.96-4.6-.5-4.65.65-8.43 4.23-8.43 7.97 0 3.75 3.78 6.05 8.43 5.4 4.66-.67 8.08-4.13 8.08-7.88 0 0 0-16.03 0-17.7 0-1.66 2-2.37 2-2.37L50.58 27s1.9-.64 1.9 1.14 0 14.2 0 14.2-1.75-1-4.93-.62c-4.65.56-8.43 4.06-8.43 7.8 0 3.76 3.78 6.13 8.43 5.56 4.66-.56 8.44-4.06 8.44-7.8V18.33c0-2.38-1.92-3.76-4.3-3.08z"/></svg>