<?xml version="1.0" encoding="utf-8"?>
<!-- Generator: Adobe Illustrator 16.0.0, SVG Export Plug-In . SVG Version: 6.00 Build 0)  -->
<!DOCTYPE svg PUBLIC "-//W3C//DTD SVG 1.1//EN" "http://www.w3.org/Graphics/SVG/1.1/DTD/svg11.dtd">
<svg version="1.1" id="Layer_1" xmlns="http://www.w3.org/2000/svg" xmlns:xlink="http://www.w3.org/1999/xlink" x="0px" y="0px"
	 width="200px" height="200px" viewBox="0 0 200 200" enable-background="new 0 0 200 200" xml:space="preserve">
<path d="M172.889,51.711h-36.444H100H63.556H27.112H2.241V26.772c0-5.541,4.486-10.027,10.022-10.027h11.116
	c3.245,0,6.393-0.778,9.205-2.216c2.812-1.433,5.285-3.526,7.186-6.156C43.571,3.112,49.667,0,56.159,0h87.683
	c6.485,0,12.583,3.112,16.385,8.372c3.807,5.26,9.899,8.373,16.391,8.373h11.115c5.535,0,10.027,4.487,10.027,10.027v24.94H172.889z
	"/>
<g>
	<path d="M27.11,80.926c-1.36,0-2.463-1.103-2.463-2.462V35.459c0-1.36,1.103-2.462,2.463-2.462c1.36,0,2.462,1.103,2.462,2.462
		v43.004C29.573,79.823,28.47,80.926,27.11,80.926z"/>
	<path d="M63.554,80.926c-1.36,0-2.462-1.103-2.462-2.462V35.459c0-1.36,1.103-2.462,2.462-2.462c1.36,0,2.462,1.103,2.462,2.462
		v43.004C66.017,79.823,64.915,80.926,63.554,80.926z"/>
	<path d="M99.999,80.926c-1.36,0-2.462-1.103-2.462-2.462V35.459c0-1.36,1.102-2.462,2.462-2.462c1.36,0,2.462,1.103,2.462,2.462
		v43.004C102.461,79.823,101.358,80.926,99.999,80.926z"/>
	<path d="M136.442,80.926c-1.36,0-2.462-1.103-2.462-2.462V35.459c0-1.36,1.102-2.462,2.462-2.462s2.463,1.103,2.463,2.462v43.004
		C138.905,79.823,137.803,80.926,136.442,80.926z"/>
	<path d="M172.887,80.926c-1.359,0-2.462-1.103-2.462-2.462V35.459c0-1.36,1.103-2.462,2.462-2.462c1.36,0,2.463,1.103,2.463,2.462
		v43.004C175.35,79.823,174.247,80.926,172.887,80.926z"/>
</g>
<g>
	<polygon points="36.223,70.918 36.223,131.494 18,131.494 18,70.918 27.112,70.918 	"/>
	<polygon points="72.667,70.918 72.667,149.914 54.444,149.914 54.444,70.918 63.556,70.918 	"/>
	<polygon points="109.111,70.918 109.111,170.254 90.889,170.254 90.889,70.918 100,70.918 	"/>
	<polygon points="145.556,70.918 145.556,186.688 127.333,186.688 127.333,70.918 136.444,70.918 	"/>
	<polygon points="182,70.918 182,200 163.777,200 163.777,70.918 172.889,70.918 	"/>
</g>
</svg>
