<?xml version="1.0" encoding="UTF-8" standalone="no"?>
<!-- Generator: Adobe Illustrator 16.0.0, SVG Export Plug-In . SVG Version: 6.00 Build 0)  -->

<svg
   xmlns:dc="http://purl.org/dc/elements/1.1/"
   xmlns:cc="http://creativecommons.org/ns#"
   xmlns:rdf="http://www.w3.org/1999/02/22-rdf-syntax-ns#"
   xmlns:svg="http://www.w3.org/2000/svg"
   xmlns="http://www.w3.org/2000/svg"
   xmlns:sodipodi="http://sodipodi.sourceforge.net/DTD/sodipodi-0.dtd"
   xmlns:inkscape="http://www.inkscape.org/namespaces/inkscape"
   version="1.1"
   id="Capa_1"
   x="0px"
   y="0px"
   width="554.625px"
   height="554.625px"
   viewBox="0 0 554.625 554.625"
   style="enable-background:new 0 0 554.625 554.625;"
   xml:space="preserve"
   inkscape:version="0.91 r13725"
   sodipodi:docname="clipboard-failed.svg"><metadata
     id="metadata45"><rdf:RDF><cc:Work
         rdf:about=""><dc:format>image/svg+xml</dc:format><dc:type
           rdf:resource="http://purl.org/dc/dcmitype/StillImage" /></cc:Work></rdf:RDF></metadata><defs
     id="defs43" /><sodipodi:namedview
     pagecolor="#ffffff"
     bordercolor="#666666"
     borderopacity="1"
     objecttolerance="10"
     gridtolerance="10"
     guidetolerance="10"
     inkscape:pageopacity="0"
     inkscape:pageshadow="2"
     inkscape:window-width="1920"
     inkscape:window-height="996"
     id="namedview41"
     showgrid="false"
     inkscape:zoom="0.15044147"
     inkscape:cx="-3363.3996"
     inkscape:cy="470.80358"
     inkscape:window-x="-8"
     inkscape:window-y="-8"
     inkscape:window-maximized="1"
     inkscape:current-layer="g5" /><g
     id="g3"><g
       id="g5"><path
         d="m 420.75,76.5 -19.125,0 0,0 0,19.125 c 0,21.038 -17.213,38.25 -38.25,38.25 l -172.125,0 c -21.038,0 -38.25,-17.212 -38.25,-38.25 l 0,-19.125 0,0 -19.125,0 c -21.038,0 -38.25,17.212 -38.25,38.25 l 0,401.625 c 0,21.037 17.212,38.25 38.25,38.25 l 286.875,0 c 21.037,0 38.25,-17.213 38.25,-38.25 L 459,114.75 C 459,93.712 441.787,76.5 420.75,76.5 Z M 206,424.625 l -15,-15 71,-71 -71,-71 15,-15 71,71 71,-71 15,15 -71,71 71,71 -15,15 -71,-71 z"
         id="path7"
         inkscape:connector-curvature="0"
         sodipodi:nodetypes="sccssssccssssssssccccccccccccc" /><path
         d="M191.25,114.75h172.125c9.562,0,19.125-7.65,19.125-19.125V76.5c0-11.475-7.65-19.125-19.125-19.125h-38.25V38.25    c0-21.038-17.213-38.25-38.25-38.25H267.75c-21.038,0-38.25,17.212-38.25,38.25v19.125h-38.25c-9.562,0-19.125,7.65-19.125,19.125    v19.125C172.125,107.1,179.775,114.75,191.25,114.75z M277.312,38.25c5.737,0,9.562,3.825,9.562,9.562s-3.825,9.562-9.562,9.562    s-9.562-3.825-9.562-9.562S271.575,38.25,277.312,38.25z"
         id="path9" /></g></g><g
     id="g11" /><g
     id="g13" /><g
     id="g15" /><g
     id="g17" /><g
     id="g19" /><g
     id="g21" /><g
     id="g23" /><g
     id="g25" /><g
     id="g27" /><g
     id="g29" /><g
     id="g31" /><g
     id="g33" /><g
     id="g35" /><g
     id="g37" /><g
     id="g39" /></svg>