<?xml version="1.0" encoding="iso-8859-1"?>
<!-- Generator: Adobe Illustrator 16.0.0, SVG Export Plug-In . SVG Version: 6.00 Build 0)  -->
<!DOCTYPE svg PUBLIC "-//W3C//DTD SVG 1.1//EN" "http://www.w3.org/Graphics/SVG/1.1/DTD/svg11.dtd">
<svg version="1.1" id="Capa_1" xmlns="http://www.w3.org/2000/svg" xmlns:xlink="http://www.w3.org/1999/xlink" x="0px" y="0px"
	 width="554.625px" height="554.625px" viewBox="0 0 554.625 554.625" style="enable-background:new 0 0 554.625 554.625;"
	 xml:space="preserve">
<g>
	<g>
		<path d="M420.75,76.5h-19.125l0,0v19.125c0,21.038-17.213,38.25-38.25,38.25H191.25c-21.038,0-38.25-17.212-38.25-38.25V76.5l0,0
			h-19.125c-21.038,0-38.25,17.212-38.25,38.25v401.625c0,21.037,17.212,38.25,38.25,38.25H420.75
			c21.037,0,38.25-17.213,38.25-38.25V114.75C459,93.712,441.787,76.5,420.75,76.5z M254.362,415.013l-84.15-84.15l13.388-13.388
			l70.762,70.763L390.15,252.45l13.387,13.387L254.362,415.013z"/>
		<path d="M191.25,114.75h172.125c9.562,0,19.125-7.65,19.125-19.125V76.5c0-11.475-7.65-19.125-19.125-19.125h-38.25V38.25
			c0-21.038-17.213-38.25-38.25-38.25H267.75c-21.038,0-38.25,17.212-38.25,38.25v19.125h-38.25c-9.562,0-19.125,7.65-19.125,19.125
			v19.125C172.125,107.1,179.775,114.75,191.25,114.75z M277.312,38.25c5.737,0,9.562,3.825,9.562,9.562s-3.825,9.562-9.562,9.562
			s-9.562-3.825-9.562-9.562S271.575,38.25,277.312,38.25z"/>
	</g>
</g>
<g>
</g>
<g>
</g>
<g>
</g>
<g>
</g>
<g>
</g>
<g>
</g>
<g>
</g>
<g>
</g>
<g>
</g>
<g>
</g>
<g>
</g>
<g>
</g>
<g>
</g>
<g>
</g>
<g>
</g>
</svg>
