<?xml version="1.0" encoding="iso-8859-1"?>
<!-- Generator: Adobe Illustrator 16.0.0, SVG Export Plug-In . SVG Version: 6.00 Build 0)  -->
<!DOCTYPE svg PUBLIC "-//W3C//DTD SVG 1.1//EN" "http://www.w3.org/Graphics/SVG/1.1/DTD/svg11.dtd">
<svg version="1.1" id="Capa_1" xmlns="http://www.w3.org/2000/svg" xmlns:xlink="http://www.w3.org/1999/xlink" x="0px" y="0px"
	 width="467.46px" height="467.46px" viewBox="0 0 467.46 467.46" style="enable-background:new 0 0 467.46 467.46;"
	 xml:space="preserve">
<g>
	<path d="M459.035,0l-4.877,4.246l-3.495-3.502L447.104,4.3l-3.811-3.805l-6.652,6.652l3.803,3.811l-3.551,3.557l2.569,2.564
		L398.07,50.984l1.871,1.871l-99.312,93.521c-33.854-26.848-77.167-30.122-101.416-5.873c-8.668,8.66-16.932,22.947-23.019,39.434
		c-5.328,3.821-11.625,7.229-17.38,7.447c0,0,22.193,20.694-11.469,48.37c-33.663,27.691-50.368,11.974-57.851,2.997
		c0,0-1.252,9.654-9.363,20.738c-22.658,4.693-44.803,14.139-58.956,30.128c-38.397,43.393-14.963,98.743,18.446,132.153
		c40.972,40.972,93.257,66.331,136.144,23.443c14.938-14.932,25.011-36.199,29.499-59.029c11.447-8.7,21.62-10.034,21.62-10.034
		c-8.975-7.482-24.682-24.189,2.993-57.852c27.676-33.662,48.366-11.47,48.366-11.47c0.208-5.594,3.442-11.705,7.137-16.935
		c16.723-6.104,31.234-14.451,39.998-23.207c24.249-24.249,20.975-67.565-5.875-101.417l93.546-99.346l1.839,1.837l34.079-41.15
		l2.4,2.392l3.555-3.559l3.804,3.811l6.664-6.674l-3.812-3.805l3.559-3.559l-3.266-3.264l4.268-4.853L459.035,0z"/>
</g>
<g>
</g>
<g>
</g>
<g>
</g>
<g>
</g>
<g>
</g>
<g>
</g>
<g>
</g>
<g>
</g>
<g>
</g>
<g>
</g>
<g>
</g>
<g>
</g>
<g>
</g>
<g>
</g>
<g>
</g>
</svg>
