<?xml version="1.0" encoding="iso-8859-1"?>
<!-- Generator: Adobe Illustrator 16.0.0, SVG Export Plug-In . SVG Version: 6.00 Build 0)  -->
<!DOCTYPE svg PUBLIC "-//W3C//DTD SVG 1.1//EN" "http://www.w3.org/Graphics/SVG/1.1/DTD/svg11.dtd">
<svg version="1.1" id="Capa_1" xmlns="http://www.w3.org/2000/svg" xmlns:xlink="http://www.w3.org/1999/xlink" x="0px" y="0px"
	 width="950px" height="950.001px" viewBox="0 0 950 950.001" style="enable-background:new 0 0 950 950.001;" xml:space="preserve"
	>
<g>
	<g>
		<path d="M95.532,171.291v731.634c0,25.999,21.077,47.076,47.076,47.076h452.304c25.999,0,47.076-21.077,47.076-47.076v-239
			c-10.036,7.265-22.097,11.217-34.629,11.217c-13.029,0-25.554-4.256-35.816-12.08v104.296c0,19.297-15.642,34.938-34.939,34.938
			H200.916c-19.296,0-34.939-15.643-34.939-34.938V230.766c0-19.296,15.642-34.938,34.939-34.938h206.413v-71.613H142.607
			C116.607,124.215,95.532,145.291,95.532,171.291z M368.759,853.03c14.104,0,25.535,11.433,25.535,25.534
			c0,14.103-11.433,25.535-25.535,25.535c-14.102,0-25.535-11.432-25.535-25.535C343.224,864.462,354.657,853.03,368.759,853.03z"/>
		<path d="M750.244,0H462.795c-16.679,0-30.201,13.521-30.201,30.201v94.014v71.613V414.89H373.94
			c-12.446,0-18.411,15.285-9.256,23.715l206.857,190.461l12.88,11.859c6.481,5.967,14.709,8.951,22.938,8.951
			c8.228,0,16.455-2.984,22.937-8.951l11.692-10.766l208.045-191.555c9.156-8.43,3.191-23.715-9.255-23.715h-58.655V31.878
			C782.122,14.272,767.849,0,750.244,0z"/>
	</g>
</g>
<g>
</g>
<g>
</g>
<g>
</g>
<g>
</g>
<g>
</g>
<g>
</g>
<g>
</g>
<g>
</g>
<g>
</g>
<g>
</g>
<g>
</g>
<g>
</g>
<g>
</g>
<g>
</g>
<g>
</g>
</svg>
