<?xml version="1.0" encoding="iso-8859-1"?>
<!-- Generator: Adobe Illustrator 19.1.0, SVG Export Plug-In . SVG Version: 6.00 Build 0)  -->
<svg version="1.1" id="Capa_1" xmlns="http://www.w3.org/2000/svg" xmlns:xlink="http://www.w3.org/1999/xlink" x="0px" y="0px"
	 viewBox="0 0 405.456 405.456" style="enable-background:new 0 0 405.456 405.456;" xml:space="preserve">
<g>
	<path style="fill:#222222;" d="M74.134,64.147c-4.985,0.078-9.911,2.163-13.438,5.688l-55,55C2.096,128.432,0,133.492,0,138.583
		s2.096,10.151,5.697,13.75l183.281,183.281c3.599,3.601,8.659,5.697,13.75,5.697s10.151-2.096,13.75-5.697l183.281-183.281
		c3.601-3.599,5.697-8.659,5.697-13.75s-2.096-10.151-5.697-13.75l-55-55c-3.598-3.591-8.651-5.681-13.734-5.681
		c-5.083,0-10.136,2.09-13.734,5.681L202.728,184.397L88.166,69.833C84.499,66.169,79.318,64.07,74.134,64.147L74.134,64.147z"/>
</g>
<g>
</g>
<g>
</g>
<g>
</g>
<g>
</g>
<g>
</g>
<g>
</g>
<g>
</g>
<g>
</g>
<g>
</g>
<g>
</g>
<g>
</g>
<g>
</g>
<g>
</g>
<g>
</g>
<g>
</g>
</svg>
