<?xml version="1.0" encoding="utf-8"?>
<!-- Generator: Adobe Illustrator 16.0.0, SVG Export Plug-In . SVG Version: 6.00 Build 0)  -->
<!DOCTYPE svg PUBLIC "-//W3C//DTD SVG 1.1//EN" "http://www.w3.org/Graphics/SVG/1.1/DTD/svg11.dtd">
<svg version="1.1" id="Capa_1" xmlns="http://www.w3.org/2000/svg" xmlns:xlink="http://www.w3.org/1999/xlink" x="0px" y="0px"
	 width="612px" height="792px" viewBox="0 0 612 792" enable-background="new 0 0 612 792" xml:space="preserve">
<g opacity="0.5">
	<path fill="#222222" d="M111.899,186.824c-7.524,0.118-14.96,3.265-20.284,8.585L8.598,278.427C3.164,283.857,0,291.494,0,299.179
		s3.164,15.322,8.599,20.754L285.246,596.58c5.432,5.435,13.07,8.599,20.754,8.599s15.322-3.164,20.755-8.599l276.646-276.647
		c5.435-5.432,8.599-13.07,8.599-20.754s-3.164-15.322-8.599-20.754l-83.019-83.018c-5.431-5.42-13.058-8.575-20.729-8.575
		c-7.673,0-15.3,3.154-20.73,8.575L306,368.331L133.079,195.407C127.544,189.876,119.724,186.708,111.899,186.824L111.899,186.824z"
		/>
</g>
</svg>
