<?xml version="1.0" encoding="iso-8859-1"?>
<!-- Generator: Adobe Illustrator 16.0.0, SVG Export Plug-In . SVG Version: 6.00 Build 0)  -->
<!DOCTYPE svg PUBLIC "-//W3C//DTD SVG 1.1//EN" "http://www.w3.org/Graphics/SVG/1.1/DTD/svg11.dtd">
<svg version="1.1" id="Capa_1" xmlns="http://www.w3.org/2000/svg" xmlns:xlink="http://www.w3.org/1999/xlink" x="0px" y="0px"
	 width="950px" height="950px" viewBox="0 0 950 950" style="enable-background:new 0 0 950 950;" xml:space="preserve">
<g>
	<g>
		<path d="M595.513,950c11.729,0,20.828-10.242,19.446-21.889l-11.93-100.55H346.969l-11.93,100.55
			C333.658,939.759,342.755,950,354.486,950H595.513z"/>
		<path d="M82.416,802.296h267.552h250.065h267.552c26.439,0,47.873-21.433,47.873-47.873V243.7
			c0-26.439-21.434-47.873-47.873-47.873H675.029v75.44h131.856c14.128,0,25.581,11.453,25.581,25.581v404.426
			c0,14.128-11.453,25.581-25.581,25.581H591.082H358.917H143.112c-14.128,0-25.581-11.453-25.581-25.581V296.849
			c0-14.128,11.453-25.581,25.581-25.581H274.97v-75.44H82.416c-26.439,0-47.873,21.433-47.873,47.873v510.723
			C34.542,780.863,55.977,802.296,82.416,802.296z"/>
		<path d="M649.762,195.828v-12.633v-12.633V40c0-22.091-17.909-40-40-40H340.237c-22.091,0-40,17.909-40,40v130.561v12.633v12.633
			v75.44v59.659h-58.655c-12.446,0-18.411,15.284-9.255,23.715l219.737,202.32c6.48,5.967,14.709,8.951,22.937,8.951
			s16.455-2.984,22.937-8.951l219.737-202.32c9.156-8.431,3.192-23.715-9.255-23.715h-58.656v-59.659L649.762,195.828
			L649.762,195.828z"/>
	</g>
</g>
<g>
</g>
<g>
</g>
<g>
</g>
<g>
</g>
<g>
</g>
<g>
</g>
<g>
</g>
<g>
</g>
<g>
</g>
<g>
</g>
<g>
</g>
<g>
</g>
<g>
</g>
<g>
</g>
<g>
</g>
</svg>
