<?xml version="1.0" encoding="iso-8859-1"?>
<!-- Generator: Adobe Illustrator 18.1.1, SVG Export Plug-In . SVG Version: 6.00 Build 0)  -->
<svg version="1.1" id="Capa_1" xmlns="http://www.w3.org/2000/svg" xmlns:xlink="http://www.w3.org/1999/xlink" x="0px" y="0px"
	 viewBox="0 0 19.099 19.099" style="enable-background:new 0 0 19.099 19.099;" xml:space="preserve">
<g>
	<g>
		<path style="fill:#010002;" d="M4.326,17.248l1.609,0.877v0.523l-0.267-0.145v0.145l-1.783-0.972l-1.702,0.972v-0.152
			l-0.266,0.152v-0.523l1.66-0.949v-5.72L0,11.202l0.052-0.722l0.296,0.021V4.708l3.014,0.229v-3.31
			c-1.719-0.014-3.08-0.184-3.08-0.392c0-0.208,1.361-0.378,3.08-0.392V0.451h0.43v0.393C5.51,0.857,6.871,1.027,6.871,1.235
			S5.51,1.613,3.792,1.627V4.97l3.446,0.262v1.944c-1.543,0.859-2.605,2.477-2.679,4.351L4.326,11.51V17.248z M16.1,11.453h-0.002
			l3.001-0.251l-0.051-0.721l-0.294,0.021V4.708L14.2,5.083l-0.076,0.053l-0.03-0.044l-1.708,0.141v1.992
			c1.5,0.871,2.526,2.467,2.598,4.308l0.633-0.045v5.5l-1.66,0.949v0.523l1.832-1.048l1.92,1.048v-0.523L16.1,17.06V11.453z
			 M12.046,15.975h0.104v2.601h-0.71V16.26c-0.533,0.207-1.112,0.321-1.72,0.321c-0.565,0-1.109-0.1-1.613-0.28v2.275h-0.71v-2.599
			c-1.46-0.816-2.449-2.375-2.449-4.166c0-2.635,2.137-4.771,4.771-4.771c2.636,0,4.772,2.135,4.772,4.771
			C14.493,13.6,13.506,15.16,12.046,15.975z M11.62,11.811c0-1.048-0.851-1.9-1.899-1.9c-1.047,0-1.899,0.852-1.899,1.9
			c0,1.046,0.852,1.899,1.899,1.899C10.768,13.709,11.62,12.857,11.62,11.811z M19.099,4.219l-0.07-0.428L15.175,4.42l3.419-2.325
			l-0.244-0.359l-4.192,2.849l-0.465,0.076l0.07,0.428l0.297-0.048l0.033,0.05L14.2,5.083l0.125-0.085L19.099,4.219z"/>
	</g>
</g>
<g>
</g>
<g>
</g>
<g>
</g>
<g>
</g>
<g>
</g>
<g>
</g>
<g>
</g>
<g>
</g>
<g>
</g>
<g>
</g>
<g>
</g>
<g>
</g>
<g>
</g>
<g>
</g>
<g>
</g>
</svg>
