<?xml version="1.0" encoding="utf-8"?>
<!-- Generator: Adobe Illustrator 16.0.0, SVG Export Plug-In . SVG Version: 6.00 Build 0)  -->
<!DOCTYPE svg PUBLIC "-//W3C//DTD SVG 1.1//EN" "http://www.w3.org/Graphics/SVG/1.1/DTD/svg11.dtd">
<svg version="1.1" id="Layer_1" xmlns="http://www.w3.org/2000/svg" xmlns:xlink="http://www.w3.org/1999/xlink" x="0px" y="0px"
	 width="200px" height="200px" viewBox="0 0 200 200" enable-background="new 0 0 200 200" xml:space="preserve">
<g>
	<path fill-rule="evenodd" clip-rule="evenodd" d="M75.687,111.084c-1.148-3.164-1.896-5.859-3.072-8.351
		c-4.24-8.979-8.324-18.051-13.053-26.77c-3.534-6.516-7.954-12.552-12.013-18.781c-2.613-4.011-5.126-8.102-7.981-11.935
		c-2.306-3.093-1.614-6.312,0.012-8.815C46.275,26.118,53.31,16.019,60.402,5.97c0.827-1.172,2.791-1.542,4.32-2.332
		c0.571,0.878,0.95,1.402,1.271,1.959c10.37,18.065,20.975,36.003,30.997,54.261c4.727,8.613,8.472,17.781,12.416,26.805
		c5.122,11.719,10.17,23.478,14.866,35.37c1.26,3.188,1.224,6.916,1.604,10.416c0.478,4.386,0.782,8.791,1.142,13.19
		c0.64,7.828-0.526,15.392-3.405,22.69c-0.507,1.286-1.052,2.578-1.76,3.76c-1.096,1.83-2.476,3.496-3.509,5.356
		c-3.355,6.044-8.227,10.714-13.43,15.097c-0.608,0.512-1.317,0.947-2.046,1.268c-3.099,1.355-6.171,2.799-9.353,3.928
		c-2.448,0.867-4.904,0.933-7.272-0.786c-17.058-12.376-34.129-24.731-51.287-36.966c-4.038-2.879-5.331-7.209-6.4-11.438
		c-2.254-8.922-1.239-18.03-0.065-27.005c0.191-1.458,2.643-3.243,4.378-3.751c3.921-1.147,8.033-1.693,12.096-2.299
		C54.991,113.998,65.032,112.605,75.687,111.084z M45.691,122.807c0.441,0.822,0.626,1.471,1.041,1.895
		c3.287,3.368,6.476,6.854,9.975,9.992c3.986,3.575,4.123,3.463,9.2,1.553c1.349-0.508,3.051-0.904,3.841-1.93
		c4.218-5.473,6.004-11.809,5.893-18.984C65.775,117.795,55.971,120.241,45.691,122.807z"/>
	<path fill-rule="evenodd" clip-rule="evenodd" d="M169.896,117.522c-12.781,2.13-25.456,4.242-37.569,6.262
		c-5.434-12.918-10.671-25.612-16.113-38.219c-3.556-8.241-7.083-16.523-11.208-24.484C99.795,51.022,94.023,41.252,88.43,31.393
		c-5.158-9.094-10.4-18.141-15.603-27.211c-0.246-0.43-0.453-0.883-0.829-1.621c1.845-0.087,3.432-0.2,5.021-0.231
		c10.545-0.204,21.09-0.435,31.635-0.52c1.165-0.01,2.538,0.593,3.47,1.341c6.564,5.266,10.368,12.755,15.294,19.338
		c1.573,2.104,2.826,4.467,4.082,6.789c11.14,20.595,20.549,42.002,29.578,63.574c3.26,7.787,5.899,15.833,8.811,23.765
		C169.957,116.809,169.896,117.047,169.896,117.522z"/>
	<path fill-rule="evenodd" clip-rule="evenodd" d="M109.779,197.175c18.371-15.887,27.088-35.472,23.21-59.989
		c4.504-0.775,8.683-1.513,12.868-2.21c8.488-1.413,16.992-2.744,25.462-4.255c1.833-0.327,2.202,0.254,2.193,1.855
		c-0.034,7.078,0.458,14.199-0.173,21.221c-0.455,5.033-2.074,10.038-3.731,14.865c-2.443,7.113-7.162,12.562-12.999,17.384
		c-3.271,2.704-6.838,3.153-10.499,3.924c-11.868,2.499-23.76,4.886-35.644,7.309C110.334,197.306,110.182,197.239,109.779,197.175z
		"/>
</g>
</svg>
