<?xml version="1.0" encoding="iso-8859-1"?>
<!-- Generator: Adobe Illustrator 16.0.0, SVG Export Plug-In . SVG Version: 6.00 Build 0)  -->
<!DOCTYPE svg PUBLIC "-//W3C//DTD SVG 1.1//EN" "http://www.w3.org/Graphics/SVG/1.1/DTD/svg11.dtd">
<svg version="1.1" id="Capa_1" xmlns="http://www.w3.org/2000/svg" xmlns:xlink="http://www.w3.org/1999/xlink" x="0px" y="0px"
	 width="478.756px" height="478.756px" viewBox="0 0 478.756 478.756" style="enable-background:new 0 0 478.756 478.756;"
	 xml:space="preserve">
<g>
	<g>
		<path d="M250.635,125.083c-48.203-10.413-66.277,26.403-85.987,63.842c-19.713,37.432-24.808,49.858-66.493,64.771
			c-19.562,6.992-35.42,14.751-46.805,21.034c-9.506,3.896-18.046,9.606-25.137,17.252c-45.412,48.963-5.957,85.562,42.725,130.703
			c48.676,45.139,88.135,81.739,133.54,32.765c3.477-3.747,6.448-7.811,8.967-12.135l0.014,0.008
			c16.112-22.117,16.637-97.524,75.324-111.126c61.313-14.219,46.678-59.582,46.678-59.582
			c-16.029,17.279-68.358,44.835-76.891,10.127c-6.003-24.386,8.132-45.921,17.08-56.6c1.286-1.528,2.461-2.855,3.463-3.917
			c1.927-2.056,3.182-3.202,3.182-3.202l-0.205-0.172l88.905-100.667c12.728-14.168,27.936-7.133,27.936-7.133
			c7.146-35.879,73.048-90.188,73.048-90.188s5.289,0.8,0.737-13.815c-4.557-14.613-15.44,5.612-23.432,6.083
			C439.296,13.603,438.162,0,438.162,0l-88.239,70.989c4.744,9.748,4.736,16.565,3.57,20.937L235.655,211.189
			c-19.335,6.137-29.094-3.934-26.234-28.952C213.179,149.286,250.635,125.083,250.635,125.083z"/>
	</g>
</g>
<g>
</g>
<g>
</g>
<g>
</g>
<g>
</g>
<g>
</g>
<g>
</g>
<g>
</g>
<g>
</g>
<g>
</g>
<g>
</g>
<g>
</g>
<g>
</g>
<g>
</g>
<g>
</g>
<g>
</g>
</svg>
