<?xml version="1.0" encoding="iso-8859-1"?>
<!-- Generator: Adobe Illustrator 18.0.0, SVG Export Plug-In . SVG Version: 6.00 Build 0)  -->
<!DOCTYPE svg PUBLIC "-//W3C//DTD SVG 1.1//EN" "http://www.w3.org/Graphics/SVG/1.1/DTD/svg11.dtd">
<svg version="1.1" id="Capa_1" xmlns="http://www.w3.org/2000/svg" xmlns:xlink="http://www.w3.org/1999/xlink" x="0px" y="0px"
	 viewBox="0 0 200.591 200.591" style="enable-background:new 0 0 200.591 200.591;" xml:space="preserve">
<path d="M40.489,0v200h7.934l10.074,0.513c0.259,0.013,1.664,0.078,3.923,0.078c0,0,0,0,0,0c2.869,0,7.2-0.112,12.385-0.591h2.48
	v-0.25c10.395-1.146,23.588-3.79,35.404-9.743c23.816-11.999,39.938-29.411,45.395-49.029c4.161-14.956,1.859-30.019-6.658-43.559
	c-9.208-14.642-23.872-22.38-42.405-22.38c-10.955,0-22.064,2.806-31.736,6.353V0H40.489z M109.022,109.77
	c8.036,0,11,2.95,13.005,6.139c3.257,5.179,4.106,10.334,2.597,15.761c-2.722,9.783-13.025,19.996-27.561,27.32
	c-6.186,3.116-13.417,4.821-19.777,5.756v-45.558C87.213,114.188,99.319,109.77,109.022,109.77z"/>
<g>
</g>
<g>
</g>
<g>
</g>
<g>
</g>
<g>
</g>
<g>
</g>
<g>
</g>
<g>
</g>
<g>
</g>
<g>
</g>
<g>
</g>
<g>
</g>
<g>
</g>
<g>
</g>
<g>
</g>
</svg>
