<?xml version="1.0" encoding="utf-8"?>
<!-- Generator: Adobe Illustrator 16.0.0, SVG Export Plug-In . SVG Version: 6.00 Build 0)  -->
<!DOCTYPE svg PUBLIC "-//W3C//DTD SVG 1.1//EN" "http://www.w3.org/Graphics/SVG/1.1/DTD/svg11.dtd">
<svg version="1.1" id="Layer_1" xmlns="http://www.w3.org/2000/svg" xmlns:xlink="http://www.w3.org/1999/xlink" x="0px" y="0px"
	 width="200px" height="200px" viewBox="0 0 200 200" enable-background="new 0 0 200 200" xml:space="preserve">
<polygon points="77.666,100 77.666,133.334 61,133.334 61,100 52.416,100 52.416,133.334 35.75,133.334 35.75,100 29,100 29,150 
	90.25,150 90.25,100 "/>
<path d="M8.333,33.333c0,25,0,11.216,0,25v83.333c0,13.784,0,0,0,25h183.333c0-25,0-11.216,0-25V58.333c0-13.784,0,0,0-25H8.333z
	 M149.25,70.75H155V45.5h6.5v25.25h5.25v15h-17.5V70.75z M125.25,54.25H131v-8.5h6.5v8.5h5.25v15h-17.5V54.25z M100,60.5h5.75v-14
	h6.5v14h5.25v15H100V60.5z M60.25,68.5H66v-22h6.5v22h5.25v15h-17.5V68.5z M35.25,60.5H41v-14h6.5v14h5.25v15h-17.5V60.5z
	 M175,141.666c0,4.592-3.742,8.334-8.334,8.334H33.333c-4.592,0-8.333-3.742-8.333-8.334V100h8.333H50h8.333H75h25v33.334h16.666
	V100H125v33.334h16.666V100H150v33.334h16.666V100H175V141.666z"/>
</svg>
