<?xml version="1.0" encoding="utf-8"?>
<!-- Generator: Adobe Illustrator 16.0.0, SVG Export Plug-In . SVG Version: 6.00 Build 0)  -->
<!DOCTYPE svg PUBLIC "-//W3C//DTD SVG 1.1//EN" "http://www.w3.org/Graphics/SVG/1.1/DTD/svg11.dtd">
<svg version="1.1" id="Layer_1" xmlns="http://www.w3.org/2000/svg" xmlns:xlink="http://www.w3.org/1999/xlink" x="0px" y="0px"
	 width="200px" height="200px" viewBox="0 0 200 200" enable-background="new 0 0 200 200" xml:space="preserve">
<g>
	<path fill-rule="evenodd" clip-rule="evenodd" d="M194.27,57.468c-3.469,1.777-6.689,3.531-9.995,5.104
		c-11.619,5.53-23.807,9.378-36.359,12.116c-7.412,1.617-14.895,2.792-22.437,3.62c-13.215,1.45-26.457,1.747-39.714,0.904
		c-18.452-1.172-36.525-4.378-54.035-10.458c-8.431-2.928-16.577-6.485-24.312-10.955c-0.194-0.112-0.382-0.234-0.702-0.431
		c0.572-0.335,1.04-0.619,1.517-0.887c12.167-6.855,25.158-11.595,38.662-15c9.353-2.358,18.836-3.983,28.426-5.03
		c13.182-1.44,26.389-1.746,39.615-0.918c17.918,1.122,35.485,4.177,52.541,9.902c9.061,3.041,17.801,6.804,26.087,11.589
		C193.705,57.106,193.842,57.198,194.27,57.468z"/>
	<path fill-rule="evenodd" clip-rule="evenodd" d="M100.035,108.113c-25.231,19.765-68.825,19.385-93.348,0.05
		c10.788-8.114,22.989-12.475,36.226-13.93C63.544,91.965,82.767,95.782,100.035,108.113z"/>
	<path fill-rule="evenodd" clip-rule="evenodd" d="M193.25,108.201c-23.224,18.809-67.42,20.175-93.077,0.025
		C124.726,88.672,168.914,88.79,193.25,108.201z"/>
	<path fill-rule="evenodd" clip-rule="evenodd" d="M131.571,153.396c14.996-12.225,44.332-13.92,62.354-0.094
		c-7.169,5.405-15.27,8.295-24.042,9.281C156.079,164.136,143.194,161.627,131.571,153.396z"/>
	<path fill-rule="evenodd" clip-rule="evenodd" d="M6.809,153.286c15.717-12.823,45.755-13.15,62.066-0.009
		C52.832,166.282,22.793,166.247,6.809,153.286z"/>
	<path fill-rule="evenodd" clip-rule="evenodd" d="M131.401,153.283c-16.777,13.142-46.035,12.8-62.142,0.047
		C83.643,141.241,113.595,139.39,131.401,153.283z"/>
</g>
</svg>
