<?xml version="1.0" encoding="iso-8859-1"?>
<!-- Generator: Adobe Illustrator 18.0.0, SVG Export Plug-In . SVG Version: 6.00 Build 0)  -->
<!DOCTYPE svg PUBLIC "-//W3C//DTD SVG 1.1//EN" "http://www.w3.org/Graphics/SVG/1.1/DTD/svg11.dtd">
<svg version="1.1" id="Capa_1" xmlns="http://www.w3.org/2000/svg" xmlns:xlink="http://www.w3.org/1999/xlink" x="0px" y="0px"
	 viewBox="0 0 60.651 60.651" style="enable-background:new 0 0 60.651 60.651;" xml:space="preserve">
<path id="XMLID_181_" d="M2.925,42.964l-2.137-2.137c-1.049-1.05-1.049-2.751,0-3.801L37.026,0.787c1.049-1.05,2.751-1.05,3.801,0
	l2.137,2.137c0.376,0.376,0.376,0.985,0,1.361L4.285,42.964C3.91,43.34,3.3,43.34,2.925,42.964z M59.864,19.824l-2.137-2.137
	c-0.376-0.376-0.985-0.376-1.361,0L17.687,56.366c-0.376,0.376-0.376,0.985,0,1.361l2.137,2.137c1.05,1.05,2.751,1.05,3.801,0
	l36.239-36.239C60.914,22.575,60.914,20.874,59.864,19.824z M58.676,12.714L12.714,58.676c-1.05,1.05-2.751,1.05-3.801,0
	l-6.938-6.938c-1.05-1.049-1.05-2.751,0-3.801L47.937,1.975c1.05-1.049,2.751-1.049,3.801,0l6.938,6.938
	C59.726,9.963,59.726,11.665,58.676,12.714z M14.621,46.632l-0.602-0.602c-0.635-0.635-1.663-0.635-2.298,0l-1.648,1.648
	c-0.635,0.635-0.635,1.664,0,2.298l0.602,0.602c0.635,0.635,1.664,0.635,2.298,0l1.648-1.648
	C15.256,48.296,15.256,47.267,14.621,46.632z M20.614,40.639l-0.602-0.602c-0.635-0.635-1.664-0.635-2.298,0l-1.648,1.648
	c-0.635,0.635-0.635,1.664,0,2.298l0.602,0.602c0.635,0.635,1.664,0.635,2.298,0l1.648-1.648
	C21.248,42.303,21.248,41.274,20.614,40.639z M26.607,34.646l-0.602-0.602c-0.635-0.635-1.664-0.635-2.298,0l-1.648,1.648
	c-0.635,0.635-0.635,1.664,0,2.298l0.602,0.602c0.635,0.635,1.663,0.635,2.298,0l1.648-1.648
	C27.241,36.31,27.241,35.281,26.607,34.646z M32.6,28.654l-0.602-0.602c-0.635-0.635-1.663-0.635-2.298,0L28.052,29.7
	c-0.635,0.635-0.635,1.664,0,2.298l0.602,0.602c0.635,0.635,1.664,0.635,2.298,0l1.648-1.648
	C33.234,30.317,33.234,29.288,32.6,28.654z M38.593,22.661l-0.602-0.602c-0.635-0.635-1.664-0.635-2.298,0l-1.648,1.648
	c-0.635,0.635-0.635,1.664,0,2.298l0.602,0.602c0.635,0.635,1.664,0.635,2.298,0l1.648-1.648
	C39.227,24.324,39.227,23.295,38.593,22.661z M44.585,16.668l-0.602-0.602c-0.635-0.635-1.664-0.635-2.298,0l-1.648,1.648
	c-0.635,0.635-0.635,1.664,0,2.298l0.602,0.602c0.635,0.635,1.663,0.635,2.298,0l1.648-1.648
	C45.22,18.331,45.22,17.302,44.585,16.668z M50.578,10.675l-0.602-0.602c-0.635-0.635-1.663-0.635-2.298,0l-1.648,1.648
	c-0.635,0.635-0.635,1.664,0,2.298l0.602,0.602c0.635,0.635,1.664,0.635,2.298,0l1.648-1.648
	C51.213,12.338,51.213,11.31,50.578,10.675z"/>
<g>
</g>
<g>
</g>
<g>
</g>
<g>
</g>
<g>
</g>
<g>
</g>
<g>
</g>
<g>
</g>
<g>
</g>
<g>
</g>
<g>
</g>
<g>
</g>
<g>
</g>
<g>
</g>
<g>
</g>
</svg>
