<?xml version="1.0" encoding="iso-8859-1"?>
<!-- Generator: Adobe Illustrator 18.1.1, SVG Export Plug-In . SVG Version: 6.00 Build 0)  -->
<svg version="1.1" id="Capa_1" xmlns="http://www.w3.org/2000/svg" xmlns:xlink="http://www.w3.org/1999/xlink" x="0px" y="0px"
	 viewBox="0 0 612.001 612.001" style="enable-background:new 0 0 612.001 612.001;" xml:space="preserve">
<g>
	<g id="Headphones">
		<path d="M82.758,490.647C6.581,389.98,7.202,250.783,84.275,150.798c-8.309-3.337-15.221-9.43-19.575-17.255
			C-30.291,255.354-19.6,428.861,89.626,538.088c3.069-3.069,6.139-6.139,9.207-9.207c24.009,41.584,64.888,70.699,112.036,79.795
			c-41.708-72.239-83.415-144.48-125.123-216.719C74.739,423.785,73.696,458.213,82.758,490.647z"/>
		<path d="M547.301,133.544c-4.354,7.825-11.264,13.917-19.575,17.255c77.073,99.984,77.693,239.181,1.516,339.85
			c9.063-32.436,8.02-66.864-2.989-98.69c-41.708,72.239-83.415,144.48-125.123,216.719c47.149-9.095,88.027-38.211,112.036-79.795
			c3.069,3.069,6.139,6.139,9.207,9.207C631.601,428.862,642.292,255.355,547.301,133.544z"/>
		<path d="M478.187,358.018C421.07,424.62,376.826,501.255,347.705,584.02c8.542,13.415,22.352,22.598,38.026,25.284
			c44.456-76.999,88.91-153.998,133.366-230.997C508.933,366.076,494.075,358.708,478.187,358.018z"/>
		<path d="M92.904,378.307c44.456,76.999,88.91,153.998,133.366,230.997c15.675-2.687,29.484-11.87,38.026-25.284
			c-29.121-82.765-73.366-159.4-130.482-226.002C117.926,358.708,103.068,366.076,92.904,378.307z"/>
		<path d="M531.581,132.965c10.17-10.17,10.17-26.659,0-36.83C406.996-28.45,205.005-28.45,80.42,96.135
			c-10.17,10.17-10.17,26.659,0,36.83s26.659,10.17,36.83,0c104.244-104.244,273.257-104.244,377.502,0
			C504.921,143.135,521.41,143.135,531.581,132.965z"/>
	</g>
</g>
<g>
</g>
<g>
</g>
<g>
</g>
<g>
</g>
<g>
</g>
<g>
</g>
<g>
</g>
<g>
</g>
<g>
</g>
<g>
</g>
<g>
</g>
<g>
</g>
<g>
</g>
<g>
</g>
<g>
</g>
</svg>
