<?xml version="1.0" encoding="utf-8"?>
<!-- Generator: Adobe Illustrator 16.0.0, SVG Export Plug-In . SVG Version: 6.00 Build 0)  -->
<!DOCTYPE svg PUBLIC "-//W3C//DTD SVG 1.1//EN" "http://www.w3.org/Graphics/SVG/1.1/DTD/svg11.dtd">
<svg version="1.1" id="Capa_1" xmlns="http://www.w3.org/2000/svg" xmlns:xlink="http://www.w3.org/1999/xlink" x="0px" y="0px"
	 width="570.485px" height="570.485px" viewBox="0 0 570.485 570.485" enable-background="new 0 0 570.485 570.485"
	 xml:space="preserve">
<g>
	<g>
		<path d="M26.188,135.967C11.724,135.967,0,147.693,0,162.164v248.708c0,14.463,11.726,26.188,26.188,26.188h518.109
			c14.461,0,26.188-11.725,26.188-26.188V162.162c0-14.469-11.727-26.197-26.188-26.197 M376.305,199.323
			c0-3.694,2.998-6.691,6.691-6.691h36.1c3.697,0,6.691,2.997,6.691,6.691v32.286c0,3.692-2.998,6.69-6.691,6.69h-36.1
			c-3.695,0-6.691-2.997-6.691-6.69V199.323z M376.305,270.377v32.274c0,3.695-2.996,6.69-6.688,6.69h-36.084
			c-3.693,0-6.691-2.995-6.691-6.69v-32.274c0-3.696,2.998-6.69,6.691-6.69h36.084C373.309,263.687,376.305,266.685,376.305,270.377
			z M342.03,192.634c3.691,0,6.689,2.997,6.689,6.691v32.286c0,3.693-2.998,6.691-6.689,6.691h-36.09
			c-3.695,0-6.689-2.998-6.689-6.691v-32.286c0-3.694,2.996-6.691,6.689-6.691H342.03L342.03,192.634z M300.208,270.377v32.274
			c0,3.695-3,6.69-6.691,6.69h-36.082c-3.694,0-6.691-2.995-6.691-6.69v-32.274c0-3.696,2.997-6.69,6.691-6.69h36.082
			C297.209,263.687,300.208,266.685,300.208,270.377z M222.201,199.333c0-3.694,2.997-6.689,6.691-6.689h36.08
			c3.696,0,6.691,2.997,6.691,6.689v32.274c0,3.692-2.995,6.69-6.691,6.69h-36.08c-3.696,0-6.691-2.998-6.691-6.69V199.333
			L222.201,199.333z M224.098,270.377v32.274c0,3.695-2.997,6.69-6.691,6.69h-36.079c-3.697,0-6.693-2.995-6.693-6.69v-32.274
			c0-3.696,2.997-6.69,6.693-6.69h36.079C221.101,263.687,224.098,266.685,224.098,270.377z M68.077,231.608v-32.286
			c0-3.694,2.997-6.691,6.689-6.691h36.091c3.695,0,6.691,2.997,6.691,6.691v32.286c0,3.693-2.999,6.691-6.691,6.691H74.766
			C71.074,238.299,68.077,235.301,68.077,231.608z M123.022,373.708c0,3.695-2.999,6.691-6.691,6.691H80.248
			c-3.692,0-6.689-2.996-6.689-6.691v-32.274c0-3.695,2.997-6.69,6.689-6.69h36.083c3.694,0,6.691,2.998,6.691,6.69V373.708z
			 M147.998,302.653c0,3.695-2.997,6.691-6.691,6.691h-36.08c-3.696,0-6.691-2.996-6.691-6.691v-32.273
			c0-3.697,2.997-6.691,6.691-6.691h36.08c3.696,0,6.691,2.996,6.691,6.691V302.653z M145.132,231.608v-32.286
			c0-3.694,2.999-6.691,6.693-6.691h36.098c3.696,0,6.691,2.997,6.691,6.691v32.286c0,3.693-2.997,6.691-6.691,6.691h-36.098
			C148.13,238.299,145.132,235.301,145.132,231.608z M423.879,373.708c0,3.695-2.996,6.691-6.688,6.691H161.364
			c-3.696,0-6.691-2.996-6.691-6.691v-32.274c0-3.695,2.997-6.69,6.691-6.69H417.19c3.693,0,6.688,2.998,6.688,6.69v32.274H423.879z
			 M452.413,302.653c0,3.695-2.996,6.691-6.691,6.691h-36.078c-3.695,0-6.689-2.996-6.689-6.691v-32.273
			c0-3.697,2.996-6.691,6.689-6.691h36.078c3.697,0,6.691,2.996,6.691,6.691V302.653z M453.372,231.608v-32.274
			c0-3.694,2.998-6.689,6.691-6.689h36.078c3.695,0,6.691,2.997,6.691,6.689v32.274c0,3.693-2.996,6.691-6.691,6.691h-36.076
			C456.37,238.299,453.372,235.301,453.372,231.608z M504.975,373.708c0,3.695-2.996,6.691-6.688,6.691h-36.08
			c-3.695,0-6.691-2.996-6.691-6.691v-32.274c0-3.695,2.996-6.69,6.691-6.69h36.08c3.693,0,6.688,2.998,6.688,6.69V373.708
			L504.975,373.708z"/>
	</g>
</g>
</svg>
