<?xml version="1.0" encoding="iso-8859-1"?>
<!-- Generator: Adobe Illustrator 16.0.0, SVG Export Plug-In . SVG Version: 6.00 Build 0)  -->
<!DOCTYPE svg PUBLIC "-//W3C//DTD SVG 1.1//EN" "http://www.w3.org/Graphics/SVG/1.1/DTD/svg11.dtd">
<svg version="1.1" id="Capa_1" xmlns="http://www.w3.org/2000/svg" xmlns:xlink="http://www.w3.org/1999/xlink" x="0px" y="0px"
	 width="31.923px" height="31.923px" viewBox="0 0 31.923 31.923" style="enable-background:new 0 0 31.923 31.923;"
	 xml:space="preserve">
<g>
	<path d="M30.841,4.939H1.082C0.472,4.939,0,5.387,0,5.997v19.838c0,0.609,0.472,1.148,1.082,1.148h29.76
		c0.608,0,1.081-0.537,1.081-1.148V5.997C31.922,5.387,31.45,4.939,30.841,4.939z M6.447,18.113c0.682,0,1.235-0.554,1.235-1.236
		V7.135H8.78v9.741c0,0.682,0.553,1.236,1.235,1.236h0.412v6.584h-4.39v-6.584H6.447z M11.525,18.113h0.411
		c0.683,0,1.236-0.554,1.236-1.236V7.131h2.195v17.567h-3.842V18.113z M16.557,7.135h2.196v9.741c0,0.682,0.554,1.236,1.235,1.236
		h0.41v6.584h-3.842V7.135L16.557,7.135z M21.495,18.113h0.409c0.683,0,1.236-0.554,1.236-1.236V7.135h1.098v9.741
		c0,0.682,0.554,1.236,1.236,1.236h0.407v6.584h-4.39L21.495,18.113L21.495,18.113z M2.195,8.022c0-0.49,0.397-0.887,0.887-0.887
		h0.21v9.741c0,0.684,0.553,1.236,1.235,1.236h0.411v6.584H3.083c-0.49,0-0.887-0.396-0.887-0.888L2.195,8.022L2.195,8.022z
		 M29.727,23.809c0,0.49-0.396,0.888-0.887,0.888h-1.857v-6.584h0.412c0.685,0,1.235-0.554,1.235-1.236V7.135h0.21
		c0.49,0,0.887,0.397,0.887,0.887V23.809L29.727,23.809z"/>
</g>
<g>
</g>
<g>
</g>
<g>
</g>
<g>
</g>
<g>
</g>
<g>
</g>
<g>
</g>
<g>
</g>
<g>
</g>
<g>
</g>
<g>
</g>
<g>
</g>
<g>
</g>
<g>
</g>
<g>
</g>
</svg>
