<?xml version="1.0" encoding="utf-8"?>
<!-- Generator: Adobe Illustrator 16.0.0, SVG Export Plug-In . SVG Version: 6.00 Build 0)  -->
<!DOCTYPE svg PUBLIC "-//W3C//DTD SVG 1.1//EN" "http://www.w3.org/Graphics/SVG/1.1/DTD/svg11.dtd">
<svg version="1.1" id="Capa_1" xmlns="http://www.w3.org/2000/svg" xmlns:xlink="http://www.w3.org/1999/xlink" x="0px" y="0px"
	 width="612px" height="792px" viewBox="0 0 612 792" enable-background="new 0 0 612 792" xml:space="preserve">
<g opacity="0.5">
	<path fill="#222222" d="M515.176,201.899c-0.118-7.524-3.265-14.96-8.586-20.284l-83.018-83.018
		C418.143,93.164,410.506,90,402.821,90s-15.322,3.164-20.755,8.599L105.42,375.246c-5.435,5.432-8.599,13.07-8.599,20.754
		s3.164,15.322,8.599,20.755l276.646,276.646c5.433,5.435,13.07,8.599,20.755,8.599s15.321-3.164,20.754-8.599l83.018-83.019
		c5.421-5.431,8.575-13.058,8.575-20.729c0-7.673-3.154-15.3-8.575-20.73L333.669,396l172.924-172.921
		C512.123,217.544,515.292,209.724,515.176,201.899L515.176,201.899z"/>
</g>
</svg>
