<?xml version="1.0" encoding="utf-8"?>
<!-- Generator: Adobe Illustrator 16.0.0, SVG Export Plug-In . SVG Version: 6.00 Build 0)  -->
<!DOCTYPE svg PUBLIC "-//W3C//DTD SVG 1.1//EN" "http://www.w3.org/Graphics/SVG/1.1/DTD/svg11.dtd">
<svg version="1.1" id="Layer_1" xmlns="http://www.w3.org/2000/svg" xmlns:xlink="http://www.w3.org/1999/xlink" x="0px" y="0px"
	 width="266px" height="50px" viewBox="0 0 574.677 107.993" xml:space="preserve">
<g>
	<path fill-rule="evenodd" clip-rule="evenodd" d="M245.985,0.036c0.477,0,0.91,0,1.344,0c7.16,0,14.32-0.061,21.479,0.019
		c6.11,0.068,12.006,1.524,17.563,3.89c4.399,1.873,7.986,5.098,11.084,8.796c2.435,2.905,4.275,6.152,5.729,9.628
		c0.567,1.356,1.017,2.762,1.533,4.141c0.091,0.241,0.252,0.454,0.653,0.639c0-9.017,0-18.033,0-27.112c0.591,0,0.988,0,1.386,0
		c14.279,0,28.561-0.125,42.837,0.091c3.363,0.051,6.751,1.09,10.052,1.961c3.579,0.944,6.776,2.783,9.726,5.029
		c3.37,2.565,6.244,5.587,8.524,9.165c1.703,2.672,3.104,5.467,3.8,8.594c0.139,0.621,0.669,1.155,1.018,1.729
		c0.144-0.05,0.286-0.1,0.428-0.15c0-8.785,0-17.57,0-26.387c10.905,0,21.62,0,32.467,0c0,1.395,0,2.768,0,4.142
		c0.001,22.879,0.002,45.758,0.002,68.637c0,3.04,0,3.037,3.013,3.034c11.119-0.011,22.239-0.02,33.358-0.027
		c1.375-0.001,1.725,0.424,1.725,2.107c0,6.12-0.006,12.239-0.009,18.359c-0.001,3.876,0,7.751,0,11.671
		c-23.521,0-46.952,0-70.539,0c0-21.427,0-42.822,0-64.218c-0.158-0.056-0.316-0.112-0.475-0.168
		c-0.349,0.646-0.845,1.255-1.022,1.945c-1.666,6.465-5.396,11.583-10.272,15.975c-4.341,3.911-9.45,6.392-15.064,7.784
		c-2.231,0.554-4.582,0.743-6.89,0.843c-3.193,0.138-6.397,0.038-9.597,0.029c-1.438-0.005-1.988,0.498-1.986,1.919
		c0.015,11.359,0.037,22.718,0.051,34.077c0.001,0.589-0.057,1.179-0.09,1.813c-21.71,0-43.421,0-64.996,0
		c-0.672-1.026-1.273-2.021-1.947-2.962c-5.761-8.052-11.539-16.091-17.304-24.139c-2.417-3.375-4.832-6.751-7.201-10.159
		c-0.295-0.424-0.429-1.046-0.431-1.576c-0.031-9.839-0.034-19.679-0.032-29.518c0-1.316,0.392-1.665,1.758-1.664
		c7.359,0.004,14.719,0.025,22.079-0.002c0.856-0.003,1.758-0.149,2.555-0.449c1.231-0.464,1.723-1.502,1.546-2.784
		c-0.16-1.155-1.091-2.182-2.235-2.372c-0.587-0.098-1.194-0.107-1.793-0.107c-7.359-0.001-14.719,0.005-22.079,0.013
		c-1.465,0.001-1.815-0.289-1.817-1.716c-0.012-9.76-0.009-19.519-0.007-29.279C245.906,0.919,245.95,0.563,245.985,0.036z
		 M305.399,43.219c-0.107-0.018-0.216-0.036-0.323-0.054c-0.459,0.942-1.088,1.84-1.346,2.833c-0.949,3.663-2.802,6.856-4.979,9.875
		c-3.109,4.311-7.016,7.77-11.771,10.143c-2.411,1.202-5.011,2.024-7.529,3.011c-1.165,0.457-1.292,1.004-0.547,1.966
		c1.392,1.796,2.773,3.603,4.092,5.452c3.405,4.772,6.767,9.576,10.159,14.357c3.463,4.881,6.94,9.752,10.419,14.621
		c0.206,0.288,0.438,0.589,0.727,0.777c0.242,0.157,0.646,0.294,0.864,0.192c0.196-0.092,0.322-0.517,0.329-0.798
		c0.022-0.878-0.045-1.758-0.044-2.637c0.028-19.345,0.063-38.69,0.087-58.036C305.539,44.354,305.448,43.786,305.399,43.219z
		 M344.092,32.275c0-0.008,0-0.016,0-0.024c-1.435,0-2.87-0.011-4.306,0.003c-1.652,0.016-1.972,0.362-1.928,1.971
		c0.02,0.717-0.018,1.435-0.001,2.152c0.023,0.991,0.521,1.606,1.535,1.612c3.149,0.018,6.301,0.05,9.447-0.037
		c1.783-0.049,2.938-1.363,2.891-3.01c-0.044-1.497-1.225-2.595-2.975-2.655C347.203,32.232,345.646,32.275,344.092,32.275z"/>
	<path fill-rule="evenodd" clip-rule="evenodd" d="M240.148,0.1c0,10.107,0.004,20.208-0.005,30.31
		c-0.001,1.506-0.389,1.904-1.674,1.901c-9.437-0.021-18.875-0.042-28.312-0.062c-1.92-0.004-3.839-0.004-5.759,0.003
		c-2.163,0.008-2.348,0.247-2.346,2.415c0.011,12.998,0.001,25.995-0.002,38.992c-0.003,10.798-0.006,21.596-0.015,32.394
		c0,0.629-0.063,1.259-0.099,1.936c-10.694,0-21.403,0-32.266,0c0-1.375,0.001-2.745,0-4.114
		c-0.015-22.636-0.029-45.271-0.043-67.906c0-0.32-0.002-0.64,0-0.96c0.024-2.755,0,0,0.024-2.755
		c-11.197,0.016-25.109,0.032-36.306,0.052c-0.914,0.002-1.561-0.232-1.559-1.333c0.019-10.197,0.023-20.395,0.035-30.592
		c0-0.072,0.041-0.145,0.082-0.28C167.944,0.1,204,0.1,240.148,0.1z"/>
	<path fill-rule="evenodd" clip-rule="evenodd" d="M491.804,0.106c0,1.341,0,2.684,0,4.027c-0.004,16.036-0.009,32.072-0.012,48.108
		c-0.001,1.509,0.331,1.827,1.841,1.803c0.92-0.015,1.842,0.011,2.758-0.053c1.13-0.077,1.888,0.437,2.514,1.316
		c3.884,5.467,7.776,10.927,11.678,16.382c2.949,4.123,5.915,8.234,8.871,12.353c0.093,0.13,0.188,0.267,0.239,0.415
		c0.16,0.466,0.299,0.938,0.445,1.408c-0.481,0.127-0.963,0.363-1.444,0.364c-8.277,0.018-16.556,0.008-24.833-0.001
		c-1.915-0.002-2.069,0.202-2.057,2.149c0.042,6.078,0.047,12.156,0.056,18.234c0.001,0.435-0.072,0.87-0.116,1.365
		c-10.686,0-21.385,0-32.158,0c0-35.948,0-71.875,0-107.871C470.301,0.106,481.001,0.106,491.804,0.106z"/>
	<path fill-rule="evenodd" clip-rule="evenodd" d="M125.462,1.223c0,0.539,0,1.078,0,1.617c-0.001,13.837-0.052,27.674,0.047,41.51
		c0.015,2.136-1.289,3.371-2.306,4.824c-4.324,6.182-8.713,12.317-13.101,18.454c-2.555,3.574-5.173,7.102-7.722,10.679
		c-3.451,4.844-6.85,9.724-10.296,14.571c-2.475,3.482-4.989,6.938-7.488,10.404c-0.956,1.325-1.928,2.64-2.866,3.978
		c-0.117,0.167-0.068,0.451-0.102,0.729c-0.34,0-0.732,0-0.958,0c-0.192-0.437-0.288-0.812-0.497-1.105
		c-3.797-5.333-7.612-10.653-11.415-15.983c-2.944-4.127-5.866-8.27-8.815-12.392c-4.204-5.875-8.417-11.743-12.648-17.599
		c-0.521-0.721-0.569-1.312-0.034-2.053c3.485-4.818,6.943-9.658,10.408-14.491c1.442-2.012,2.862-4.04,4.33-6.033
		c0.733-0.995,1.107-0.99,1.811-0.006c3.533,4.935,7.05,9.88,10.567,14.826c1.99,2.798,3.969,5.604,5.956,8.404
		c0.62,0.873,1.185,0.442,1.625-0.149c1.094-1.474,2.131-2.99,3.201-4.483c3.859-5.386,7.731-10.764,11.581-16.157
		c3.34-4.68,6.65-9.382,9.986-14.065c3.8-5.333,7.619-10.652,11.419-15.984c2.016-2.828,4.004-5.675,6.019-8.504
		c0.281-0.394,0.638-0.734,0.959-1.1C125.237,1.151,125.35,1.187,125.462,1.223z"/>
	<path fill-rule="evenodd" clip-rule="evenodd" d="M164.045,107.994c-10.788,0-21.501,0-32.363,0c0-6.629-0.01-13.245,0.008-19.861
		c0.004-1.502-0.25-1.866-1.782-1.865c-8.438,0.006-16.877,0.045-25.315,0.037c-0.452-0.001-1.071-0.21-1.299-0.539
		c-0.163-0.235,0.093-0.909,0.343-1.26c3.053-4.293,6.144-8.559,9.217-12.838c3.423-4.767,8.571-11.552,11.687-16.511
		c1.072-1.485,0.824-0.824,1.387-1.113c0.619,0.09,5.036,0.066,5.784,0.066c0.032-0.671,0.082-1.216,0.082-1.761
		c0.002-4.16-0.006-8.32-0.009-12.479c-0.001-1.651,0.246-1.901,1.844-1.9c9.28,0.003,18.559,0.005,27.839,0.01
		c0.359,0,0.721,0,1.079,0.03c1.041,0.088,1.569,0.605,1.564,1.709c-0.031,8.639-0.048,17.279-0.054,25.918
		c-0.01,13.439-0.008,26.879-0.011,40.318C164.045,106.621,164.045,107.287,164.045,107.994z"/>
	<path fill-rule="evenodd" clip-rule="evenodd" d="M574.677,107.993c-10.955,0-21.906,0-32.702,0
		c-0.178-0.393-0.271-0.728-0.461-0.994c-4.794-6.729-9.605-13.446-14.397-20.177c-4.212-5.917-8.388-11.86-12.609-17.771
		c-3.758-5.262-7.561-10.49-11.335-15.74c-1.63-2.269-3.29-4.519-4.823-6.852c-0.43-0.653-0.64-1.57-0.642-2.367
		c-0.033-12.876-0.014-25.753-0.017-38.629c0-1.039-0.126-2.079-0.086-3.114c0.014-0.363,0.35-0.714,0.539-1.07
		c0.319,0.193,0.744,0.312,0.943,0.591c5.466,7.671,10.905,15.361,16.355,23.043c5.036,7.099,10.063,14.204,15.123,21.285
		c4.573,6.398,9.198,12.76,13.776,19.155c3.741,5.226,7.441,10.482,11.174,15.716c3.431,4.811,6.879,9.61,10.322,14.412
		c2.605,3.634,5.221,7.261,7.816,10.901c0.243,0.341,0.378,0.76,0.611,1.243"/>
	<path fill-rule="evenodd" clip-rule="evenodd" d="M45.178,108.005c-0.263,0-0.62,0-0.647,0c-2.166-3.056-4.209-5.942-6.257-8.827
		c-2.103-2.963-4.203-5.928-6.316-8.883c-2.114-2.954-4.248-5.896-6.364-8.848c-2.115-2.953-4.222-5.911-6.329-8.87
		s-4.209-5.922-6.316-8.882c-2.106-2.959-4.157-5.961-6.339-8.863C4.48,52.001,2.721,48.873,0,46.001C0,31.33,0,16.18,0,0.712
		c0.597,0.509,1.104,0.796,1.412,1.227C5.106,7.1,8.767,12.286,12.445,17.459c4.649,6.54,9.299,13.08,13.964,19.608
		c4.224,5.911,8.479,11.8,12.703,17.71c3.389,4.741,6.745,9.507,10.131,14.25c2.993,4.191,6.01,8.364,9.013,12.549
		c0.676,0.94,1.327,1.898,2.007,2.836c0.483,0.667,0.505,1.291,0.011,1.979c-3.125,4.34-6.238,8.689-9.348,13.041
		c-1.741,2.436-3.477,4.875-5.192,7.328C45.491,107.106,45.379,107.544,45.178,108.005z"/>
	<path fill-rule="evenodd" clip-rule="evenodd" d="M223.986,37.971c4.756,0,9.512,0.002,14.268-0.001
		c1.468-0.001,1.902,0.382,1.903,1.803c0.006,9.512,0.004,19.024-0.001,28.536c-0.001,1.453-0.45,1.973-1.647,1.967
		c-5.954-0.027-11.908-0.07-17.862-0.079c-3.477-0.005-6.953,0.036-10.43,0.068c-2.204,0.021-2.512-0.366-2.506-2.558
		c0.022-9.231,0.003-18.463-0.028-27.695c-0.005-1.582,0.319-2.021,1.916-2.025c4.796-0.014,9.592-0.005,14.388-0.005
		C223.986,37.979,223.986,37.975,223.986,37.971z"/>
	<path fill-rule="evenodd" clip-rule="evenodd" d="M207.756,108c0-8.746,0.003-17.41-0.003-26.074
		c-0.001-1.358-0.073-2.718-0.063-4.076c0.013-1.602,0.384-1.97,2.005-1.973c5.078-0.01,10.156,0.005,15.233,0.002
		c4.478-0.003,8.956-0.017,13.434-0.026c1.43-0.003,1.789,0.425,1.788,2.171c-0.003,5.797-0.012,11.595-0.016,17.392
		c-0.003,4.184-0.001,8.366-0.001,12.585C229.348,108,218.637,108,207.756,108z"/>
	<path fill-rule="evenodd" clip-rule="evenodd" d="M437.604,37.971c4.759,0,9.517,0,14.275,0c1.439,0,1.836,0.42,1.835,1.86
		c-0.006,9.515-0.007,19.031-0.002,28.545c0.001,1.46-0.504,1.894-1.944,1.889c-9.076-0.031-18.151-0.028-27.228-0.035
		c-0.239,0-0.479,0.029-0.719,0.033c-2.208,0.035-2.517-0.362-2.512-2.552c0.021-9.235,0.003-18.472-0.028-27.708
		c-0.006-1.573,0.324-2.011,1.928-2.016c4.798-0.013,9.597-0.005,14.395-0.005C437.604,37.979,437.604,37.974,437.604,37.971z"/>
	<path fill-rule="evenodd" clip-rule="evenodd" d="M421.401,0.07c10.737,0,21.444,0,32.24,0c0,1.215-0.002,2.397,0,3.579
		c0.018,8.874,0.035,17.748,0.057,26.622c0.004,1.729-0.374,2.021-2.133,2.015c-9.114-0.031-18.229-0.031-27.342-0.023
		c-2.885,0.002-2.901-0.023-2.9-2.954c0.001-9.233-0.028-18.467-0.037-27.7C421.285,1.106,421.359,0.604,421.401,0.07z"/>
</g>
</svg>
