<?xml version="1.0" encoding="utf-8"?>
<!-- Generator: Adobe Illustrator 16.0.0, SVG Export Plug-In . SVG Version: 6.00 Build 0)  -->
<!DOCTYPE svg PUBLIC "-//W3C//DTD SVG 1.1//EN" "http://www.w3.org/Graphics/SVG/1.1/DTD/svg11.dtd">
<svg version="1.1" id="Capa_1" xmlns="http://www.w3.org/2000/svg" xmlns:xlink="http://www.w3.org/1999/xlink" x="0px" y="0px"
	 width="200px" height="200px" viewBox="0 0 200 200" enable-background="new 0 0 200 200" xml:space="preserve">
<g>
	<path d="M118.747,18.75L99.996,0L81.247,18.75L68.969,81.263l4.663,8.078l12.144-61.819C86.063,26.056,87.347,25,88.841,25h22.313
		c1.493,0,2.778,1.057,3.065,2.522l22.594,115.021c0.76,3.863-2.197,7.457-6.131,7.457h-28.376
		c-0.013-0.022-0.009-0.045-0.022-0.066l-13.255-22.615l0.512-0.297c1.241-0.719,1.837-2.188,1.441-3.566l-2.872-10.043
		l-5.403,3.121L46.45,54.684c-0.859-1.488-2.778-2.003-4.269-1.144c-1.487,0.859-2.003,2.781-1.144,4.269l36.256,61.85l-5.422,3.129
		l7.26,7.509c0.997,1.031,2.569,1.25,3.81,0.534l0.675-0.387L95.079,150H69.313c-3.935,0-6.891-3.594-6.131-7.453l4.953-25.225
		l-4.663-8.078l-16.6,84.506h6.25c0,3.453,2.797,6.25,6.25,6.25s6.25-2.797,6.25-6.25h68.75c0,3.453,2.797,6.25,6.25,6.25
		s6.25-2.797,6.25-6.25h6.25L118.747,18.75z"/>
</g>
</svg>
