<?xml version="1.0" encoding="iso-8859-1"?>
<!-- Generator: Adobe Illustrator 19.0.0, SVG Export Plug-In . SVG Version: 6.00 Build 0)  -->
<svg version="1.1" id="Layer_1" xmlns="http://www.w3.org/2000/svg" xmlns:xlink="http://www.w3.org/1999/xlink" x="0px" y="0px"
	 viewBox="0 0 459.666 459.666" style="enable-background:new 0 0 459.666 459.666;" xml:space="preserve">
<g>
	<g>
		<g>
			<path d="M452.15,37.997c-9.868-9.658-25.698-9.482-35.353,0.386L76.371,386.316c-9.656,9.868-9.483,25.697,0.386,35.353
				c4.863,4.76,11.175,7.131,17.481,7.131c6.49,0,12.975-2.511,17.871-7.517L452.535,73.349
				C462.192,63.481,462.019,47.651,452.15,37.997z"/>
			<path d="M391.27,178.862c8.127,15.205,12.742,32.558,12.742,50.97c0,59.667-48.414,108.235-108.021,108.496v55.524
				c90.224-0.261,163.546-73.736,163.546-164.02c0-34.026-10.418-65.661-28.227-91.893L391.27,178.862z"/>
			<path d="M295.991,65.812v53.144l45.556-46.561C327.081,68.159,311.797,65.857,295.991,65.812z"/>
			<path d="M295.992,317.912c48.353-0.261,87.612-39.667,87.612-88.08c0-12.622-2.674-24.63-7.476-35.493l-80.136,81.904V317.912z"
				/>
			<polygon points="295.992,317.912 295.992,317.912 295.991,317.912 			"/>
			<path d="M220.376,416.631c8.254,6.506,19.498,7.722,28.951,3.137c9.455-4.586,15.458-14.171,15.458-24.679v-86.953
				l-79.269,81.018L220.376,416.631z"/>
			<path d="M264.785,150.849V64.575c0-10.508-6.003-20.093-15.458-24.679c-9.429-4.574-20.676-3.385-28.951,3.137L116.917,124.58
				c-19.767,0-77.052,0-87.431,0C13.201,124.581,0,137.783,0,154.067c0,1.442,0,149.897,0,151.532
				c0,16.284,13.201,29.486,29.486,29.486c6.611,0,32.207,0,55.042,0L264.785,150.849z"/>
		</g>
	</g>
</g>
<g>
</g>
<g>
</g>
<g>
</g>
<g>
</g>
<g>
</g>
<g>
</g>
<g>
</g>
<g>
</g>
<g>
</g>
<g>
</g>
<g>
</g>
<g>
</g>
<g>
</g>
<g>
</g>
<g>
</g>
</svg>
