<?xml version="1.0" encoding="utf-8"?>
<!-- Generator: Adobe Illustrator 16.0.0, SVG Export Plug-In . SVG Version: 6.00 Build 0)  -->
<!DOCTYPE svg PUBLIC "-//W3C//DTD SVG 1.1//EN" "http://www.w3.org/Graphics/SVG/1.1/DTD/svg11.dtd">
<svg version="1.1" id="Layer_1" xmlns="http://www.w3.org/2000/svg" xmlns:xlink="http://www.w3.org/1999/xlink" x="0px" y="0px"
	 width="200px" height="200px" viewBox="0 0 200 200" enable-background="new 0 0 200 200" xml:space="preserve">
<path d="M166.158,41.684c-23.701-11.965-53.619-18.555-84.243-18.555c-23.167,0-44.266,5.744-59.411,16.173
	C8.202,49.15,0,62.626,0,76.273c0,18.214,14.161,35.258,37.114,44.867v41.9c0,7.625,6.204,13.83,13.83,13.83h7.772
	c7.204,0,14.836-5.281,17.375-12.021l13.399-35.568c28.661-1.009,56.393-7.82,78.303-19.261C187.659,99.648,200,86.717,200,76.273
	C200,65.477,187.032,52.223,166.158,41.684z M31.142,77.55c-5.866,0-10.638-4.772-10.638-10.638c0-5.866,4.772-10.639,10.638-10.639
	c5.866,0,10.638,4.772,10.638,10.639C41.78,72.778,37.008,77.55,31.142,77.55z M45.229,54.102c0-5.866,4.772-10.638,10.638-10.638
	c5.866,0,10.638,4.772,10.638,10.638c0,5.866-4.772,10.639-10.638,10.639C50.001,64.74,45.229,59.968,45.229,54.102z
	 M58.664,164.104h-5.593c-1.763,0-3.192-1.429-3.192-3.191s1.429-3.191,3.192-3.191h5.593c1.763,0,3.191,1.429,3.191,3.191
	S60.426,164.104,58.664,164.104z M73.684,129.174c-0.064,0-0.129-0.002-0.195-0.006c-7.359-0.443-14.48-1.484-21.167-3.092
	c-1.713-0.412-2.769-2.136-2.356-3.85c0.413-1.713,2.132-2.769,3.85-2.356c6.323,1.521,13.071,2.505,20.058,2.927
	c1.759,0.105,3.1,1.618,2.993,3.377C76.765,127.869,75.359,129.174,73.684,129.174z M80.593,77.55
	c-5.866,0-10.638-4.772-10.638-10.638c0-5.866,4.772-10.639,10.638-10.639s10.638,4.772,10.638,10.639
	C91.231,72.778,86.458,77.55,80.593,77.55z M112.979,109.678c-5.279,0-9.574-4.295-9.574-9.574c0-5.28,4.295-9.575,9.574-9.575
	s9.574,4.295,9.574,9.575C122.553,105.383,118.258,109.678,112.979,109.678z M138.511,95.422c-2.351,0-4.255-1.905-4.255-4.255
	c0-2.35,1.904-4.255,4.255-4.255s4.255,1.905,4.255,4.255C142.766,93.518,140.861,95.422,138.511,95.422z M164.043,91.806
	c-5.279,0-9.574-4.295-9.574-9.575c0-5.279,4.295-9.574,9.574-9.574s9.574,4.295,9.574,9.574
	C173.617,87.511,169.322,91.806,164.043,91.806z"/>
</svg>
