<?xml version="1.0" encoding="utf-8"?>
<!-- Generator: Adobe Illustrator 16.0.0, SVG Export Plug-In . SVG Version: 6.00 Build 0)  -->
<!DOCTYPE svg PUBLIC "-//W3C//DTD SVG 1.1//EN" "http://www.w3.org/Graphics/SVG/1.1/DTD/svg11.dtd">
<svg version="1.1" id="Layer_1" xmlns="http://www.w3.org/2000/svg" xmlns:xlink="http://www.w3.org/1999/xlink" x="0px" y="0px"
	 width="600px" height="600px" viewBox="0 0 600 600" enable-background="new 0 0 600 600" xml:space="preserve">
<g>
	<path fill-rule="evenodd" clip-rule="evenodd" d="M141.023,299.101c-7.22-10.138-14.323-19.588-20.861-29.413
		c-10.029-15.072-16.632-31.441-17.476-49.816c-2.068-45.053,33.655-77.114,66.921-83.784c19.314-3.873,38.54-3.536,57.131,3.429
		c49.837,18.668,64.497,74.047,30.775,115.521c-13.687,16.834-32.068,26.711-51.619,34.852c-2.894,1.205-5.83,2.31-9.369,3.706
		c1.47,1.67,2.636,3,3.807,4.326c13.271,15.04,25.538,30.774,33.759,49.27c31.999,71.996-20.675,133.229-74.667,143.867
		c-27.447,5.408-54.385,4.145-78.718-11.135c-41.984-26.363-52.474-72.854-29.285-113.301
		c11.009-19.203,26.626-33.654,45.438-44.684c12.191-7.148,24.976-13.285,37.516-19.832
		C136.422,301.04,138.584,300.196,141.023,299.101z M135.774,481.67c33.889,0.045,62.188-22.871,68.525-55.686
		c3.06-15.842,0.577-31.215-4.987-46.129c-9.942-26.65-28.196-47.709-46.76-68.496c-0.796-0.893-3.37-1.014-4.714-0.48
		c-44.255,17.539-74.231,61.771-74.1,109.133C73.841,457.014,98.596,481.619,135.774,481.67z M191.51,146.671
		c-31.044-0.011-51.688,20.949-51.25,52c0.173,12.246,3.266,23.692,9.203,34.39c9.598,17.293,21.945,32.575,34.952,47.338
		c0.971,1.102,3.91,1.474,5.468,0.906c35.336-12.881,56.709-45.637,54.534-83.269C242.592,166.45,222.23,146.682,191.51,146.671z"/>
	<path fill-rule="evenodd" clip-rule="evenodd" d="M531.862,220.125c1.52-4.675,2.939-8.353,3.879-12.149
		c0.762-3.081,2.437-4.284,5.505-4.631c6.224-0.702,12.409-1.754,19.396-2.777c-0.682,2.546-1.116,4.261-1.599,5.963
		c-9.939,35.073-19.893,70.142-29.806,105.222c-0.586,2.074-1.304,4.27-1.146,6.346c0.138,1.797,0.996,4.229,2.343,5.041
		c1.286,0.777,4.19,0.51,5.379-0.49c4.047-3.408,7.752-7.244,11.383-11.109c2.139-2.277,3.891-4.918,5.99-7.617
		c1.69,1.241,3.12,2.292,4.851,3.563c-7.795,11.379-16.029,21.842-28.336,27.938c-4.185,2.074-9.14,3.268-13.815,3.523
		c-7.559,0.412-12.315-4.088-11.783-11.605c0.56-7.896,2.582-15.693,4.024-23.521c0.294-1.598,0.851-3.148,0.604-5.227
		c-0.89,0.984-1.742,2.005-2.676,2.945c-8.896,8.954-17.295,18.503-26.913,26.604c-5.406,4.553-12.53,7.764-19.409,9.727
		c-16.066,4.588-29.699-3.885-33.875-20.117c-2.769-10.764-1.889-21.584,0.916-32.132c8.151-30.661,24.391-55.983,50.618-74.354
		c8.549-5.987,17.836-10.42,28.604-10.665c12.3-0.28,19.229,4.24,23.989,15.629C530.403,217.229,530.924,218.187,531.862,220.125z
		 M525.847,234.228c0-1.829,0.084-3.663-0.013-5.487c-0.963-18.214-14.633-25.967-30.529-16.863
		c-5.392,3.088-10.434,7.249-14.662,11.82c-14.16,15.313-23.481,33.538-28.756,53.549c-2.333,8.85-3.495,18.409-2.973,27.52
		c0.803,13.998,12.424,20.375,25.438,15.078c3.35-1.363,6.744-3.111,9.469-5.443C508.481,293.298,523.919,267.271,525.847,234.228z"
		/>
	<path fill-rule="evenodd" clip-rule="evenodd" d="M327.051,340.264c-0.735-13.412-1.233-25.039-2.04-36.644
		c-1.639-23.595-3.234-47.205-8.962-70.283c-0.16-0.647-0.289-1.302-0.47-1.943c-4.686-16.607-8.714-19.224-26.044-16.715
		c-2.084-3.08-2.236-5.02,2.355-5.926c11.6-2.288,23.167-4.769,34.678-7.467c3.528-0.827,5.033,0.099,6.26,3.429
		c8.025,21.801,11.112,44.537,12.975,67.497c1.034,12.744,1.72,25.516,2.608,38.966c1.16-0.836,1.956-1.242,2.542-1.854
		c15.977-16.646,29.661-35.117,42.435-54.245c3.364-5.037,5.411-11.007,7.693-16.697c1.972-4.915,0.437-9.119-3.713-12.395
		c-1.698-1.341-3.415-2.679-4.965-4.182c-5.041-4.89-5.776-10.555-2.148-15.705c3.73-5.293,10.635-7.196,16.432-4.241
		c6.516,3.322,9.723,8.861,9.948,16.136c0.253,8.206-2.141,15.758-5.645,23.062c-10.491,21.874-25.653,40.493-41.433,58.571
		c-11.163,12.79-23.149,24.868-34.971,37.067C333.007,338.326,330.24,338.807,327.051,340.264z"/>
</g>
</svg>
