<?xml version="1.0" encoding="utf-8"?>
<!-- Generator: Adobe Illustrator 16.0.0, SVG Export Plug-In . SVG Version: 6.00 Build 0)  -->
<!DOCTYPE svg PUBLIC "-//W3C//DTD SVG 1.1//EN" "http://www.w3.org/Graphics/SVG/1.1/DTD/svg11.dtd">
<svg xmlns="http://www.w3.org/2000/svg" width="50" height="50" viewBox="0 0 50 50">
    <path d="M 25 0 C 22.885 0 21.03125 1.0805 21.03125 2.3125 C 21.03125 3.5445 22.885 4.625 25 4.625 C 27.115 4.625 28.96875 3.5445 28.96875 2.3125 C 28.96875 1.0805 27.115 -2.9605947e-16 25 0 z M 16 4 C 13.885 4 12.03125 5.0805 12.03125 6.3125 C 12.03125 7.5445 13.885 8.625 16 8.625 C 18.115 8.625 19.96875 7.5445 19.96875 6.3125 C 19.96875 5.0805 18.115 4 16 4 z M 34 4 C 31.885 4 30.03125 5.0805 30.03125 6.3125 C 30.03125 7.5445 31.885 8.625 34 8.625 C 36.115 8.625 37.96875 7.5445 37.96875 6.3125 C 37.96875 5.0805 36.115 4 34 4 z M 21 5.53125 L 21 27.5 C 21 31.077 24.4175 32.83325 24.5625 32.90625 C 24.7025 32.97625 24.847 33 25 33 C 25.162 33 25.32175 32.953 25.46875 32.875 C 25.61275 32.798 29 30.961 29 27.5 L 29 5.53125 C 27.948 6.21125 26.555 6.625 25 6.625 C 23.445 6.625 22.052 6.21125 21 5.53125 z M 7 8 C 4.885 8 3.03125 9.0805 3.03125 10.3125 C 3.03125 11.5445 4.885 12.625 7 12.625 C 9.115 12.625 10.96875 11.5445 10.96875 10.3125 C 10.96875 9.0805 9.115 8 7 8 z M 43 8 C 40.885 8 39.03125 9.0805 39.03125 10.3125 C 39.03125 11.5445 40.884 12.625 43 12.625 C 45.116 12.625 46.96875 11.5445 46.96875 10.3125 C 46.96875 9.0805 45.115 8 43 8 z M 12 9.53125 L 12 27.5 C 12 31.077 15.4175 32.83325 15.5625 32.90625 C 15.7035 32.97625 15.847 33 16 33 C 16.162 33 16.32175 32.953 16.46875 32.875 C 16.61275 32.798 20 30.961 20 27.5 L 20 9.53125 C 18.948 10.21125 17.555 10.625 16 10.625 C 14.445 10.625 13.052 10.21125 12 9.53125 z M 30 9.53125 L 30 27.5 C 30 31.077 33.4175 32.83325 33.5625 32.90625 C 33.7025 32.97625 33.847 33 34 33 C 34.162 33 34.32175 32.953 34.46875 32.875 C 34.61275 32.798 38 30.961 38 27.5 L 38 9.53125 C 36.948 10.21125 35.555 10.625 34 10.625 C 32.445 10.625 31.052 10.21125 30 9.53125 z M 3 13.53125 L 3 27.5 C 3 31.077 6.4175 32.83325 6.5625 32.90625 C 6.7035 32.97625 6.847 33 7 33 C 7.162 33 7.32175 32.953 7.46875 32.875 C 7.61275 32.798 11 30.961 11 27.5 L 11 13.53125 C 9.948 14.21125 8.555 14.625 7 14.625 C 5.445 14.625 4.052 14.21125 3 13.53125 z M 39 13.53125 L 39 27.5 C 39 31.077 42.4175 32.83325 42.5625 32.90625 C 42.7025 32.97625 42.847 33 43 33 C 43.162 33 43.32175 32.953 43.46875 32.875 C 43.61275 32.798 47 30.961 47 27.5 L 47 13.53125 C 45.948 14.21125 44.555 14.625 43 14.625 C 41.445 14.625 40.052 14.21125 39 13.53125 z M 5.5 25.5 L 8.5 25.5 L 8.5 27 L 5.5 27 L 5.5 25.5 z M 14.5 25.5 L 17.5 25.5 L 17.5 27 L 14.5 27 L 14.5 25.5 z M 23.5 25.5 L 26.5 25.5 L 26.5 27 L 23.5 27 L 23.5 25.5 z M 32.5 25.5 L 35.5 25.5 L 35.5 27 L 32.5 27 L 32.5 25.5 z M 41.5 25.5 L 44.5 25.5 L 44.5 27 L 41.5 27 L 41.5 25.5 z M 4.3125 34 C 4.142875 34 3.973459 34.003467 3.8125 34.03125 C 3.490582 34.086816 3.1802617 34.218777 2.90625 34.375 C 2.7630166 34.456662 2.6577201 34.54999 2.53125 34.65625 C 2.4157773 34.75327 2.2869871 34.852816 2.1875 34.96875 C 2.1826869 34.974217 2.1922736 34.994497 2.1875 35 C 2.089776 35.115981 1.9862655 35.210736 1.90625 35.34375 C 1.9016777 35.351024 1.9107607 35.367684 1.90625 35.375 C 1.8274335 35.508754 1.7466874 35.663325 1.6875 35.8125 C 1.6259829 35.963094 1.5670965 36.119941 1.53125 36.28125 C 1.5289763 36.291074 1.5334422 36.302628 1.53125 36.3125 A 1.0001 1.0001 0 0 0 1.5 36.375 A 1.0001 1.0001 0 0 0 1.46875 36.5625 A 1.0001 1.0001 0 0 0 1.46875 36.6875 L 0.1875 43 L 49.8125 43 L 48.5 36.5 A 1.0004882 1.0004882 0 0 0 48.5 36.40625 L 48.5 36.375 A 1.0004882 1.0004882 0 0 0 48.46875 36.25 C 48.42974 36.093843 48.372766 35.95673 48.3125 35.8125 C 48.30889 35.803942 48.316189 35.789779 48.3125 35.78125 C 48.214279 35.552403 48.082536 35.348796 47.9375 35.15625 C 47.887745 35.090046 47.836349 35.030847 47.78125 34.96875 C 47.694667 34.871167 47.597692 34.771996 47.5 34.6875 C 47.477576 34.668247 47.460528 34.643589 47.4375 34.625 C 47.334111 34.540781 47.238427 34.474977 47.125 34.40625 C 47.105455 34.394444 47.082366 34.386346 47.0625 34.375 C 46.945919 34.308369 46.812506 34.236714 46.6875 34.1875 C 46.667395 34.179742 46.645354 34.163552 46.625 34.15625 C 46.330406 34.048484 46.012 34 45.6875 34 L 41.03125 34 L 36.96875 34 L 35.0625 34 L 30.96875 34 L 25.09375 34 L 20.96875 34 L 19.09375 34 L 14.96875 34 L 13.09375 34 L 8.90625 34 L 4.3125 34 z M 9.03125 36 L 12.9375 36 L 12.59375 40.6875 C 12.59375 40.8875 12.30625 41 11.90625 41 L 10.09375 41 C 9.69375 41 9.4125 40.8875 9.3125 40.6875 L 9.03125 36 z M 15.0625 36 L 18.9375 36 L 18.59375 40.6875 C 18.59375 40.8875 18.30625 41 17.90625 41 L 16.09375 41 C 15.69375 41 15.4125 40.8875 15.3125 40.6875 L 15.0625 36 z M 21.0625 36 L 24.9375 36 L 24.59375 40.6875 C 24.59375 40.8875 24.30625 41 23.90625 41 L 22.09375 41 C 21.69375 41 21.4125 40.8875 21.3125 40.6875 L 21.0625 36 z M 31.0625 36 L 34.9375 36 L 34.59375 40.6875 C 34.59375 40.8875 34.30525 41 33.90625 41 L 32.09375 41 C 31.69475 41 31.4135 40.8875 31.3125 40.6875 L 31.0625 36 z M 37.0625 36 L 40.90625 36 L 40.59375 40.6875 C 40.59375 40.8875 40.30525 41 39.90625 41 L 38.09375 41 C 37.69475 41 37.4135 40.8875 37.3125 40.6875 L 37.0625 36 z M 0 45 L 0 47 C 0 48.654 1.346 50 3 50 L 47 50 C 48.654 50 50 48.654 50 47 L 50 45 L 0 45 z"></path>
</svg>