<?xml version="1.0" encoding="iso-8859-1"?>
<!-- Generator: Adobe Illustrator 16.0.0, SVG Export Plug-In . SVG Version: 6.00 Build 0)  -->
<!DOCTYPE svg PUBLIC "-//W3C//DTD SVG 1.1//EN" "http://www.w3.org/Graphics/SVG/1.1/DTD/svg11.dtd">
<svg version="1.1" id="Capa_1" xmlns="http://www.w3.org/2000/svg" xmlns:xlink="http://www.w3.org/1999/xlink" x="0px" y="0px"
	 width="28.825px" height="28.824px" viewBox="0 0 28.825 28.824" style="enable-background:new 0 0 28.825 28.824;"
	 xml:space="preserve">
<g>
	<path d="M12.213,3v22.824c0,1.656-1.343,3-3,3H3.889c-1.658,0-3-1.344-3-3V3c0-1.656,1.342-3,3-3h5.324
		C10.87,0,12.213,1.344,12.213,3z M24.935,0h-5.323c-1.658,0-3,1.344-3,3v22.824c0,1.656,1.342,3,3,3h5.323c1.658,0,3-1.344,3-3V3
		C27.935,1.344,26.594,0,24.935,0z"/>
</g>
<g>
</g>
<g>
</g>
<g>
</g>
<g>
</g>
<g>
</g>
<g>
</g>
<g>
</g>
<g>
</g>
<g>
</g>
<g>
</g>
<g>
</g>
<g>
</g>
<g>
</g>
<g>
</g>
<g>
</g>
</svg>
