<?xml version="1.0" encoding="iso-8859-1"?>
<!-- Generator: Adobe Illustrator 16.0.0, SVG Export Plug-In . SVG Version: 6.00 Build 0)  -->
<!DOCTYPE svg PUBLIC "-//W3C//DTD SVG 1.1//EN" "http://www.w3.org/Graphics/SVG/1.1/DTD/svg11.dtd">
<svg version="1.1" id="Capa_1" xmlns="http://www.w3.org/2000/svg" xmlns:xlink="http://www.w3.org/1999/xlink" x="0px" y="0px"
	 width="270.039px" height="270.039px" viewBox="0 0 270.039 270.039" style="enable-background:new 0 0 270.039 270.039;"
	 xml:space="preserve">
<g>
	<path d="M0,86.127L129.267,160.7L249.839,51.942c0,0-38.53-32.933-70.853-17.396c-32.312,15.537-36.045-14.294-75.818-17.403
		C63.391,14.03,0,86.127,0,86.127z"/>
	<polygon points="175.88,211.047 128.334,184.012 128.334,168.162 0,94.516 6.682,144.182 7.148,147.657 10.001,149.288 
		11.803,177.488 18.796,177.488 23.234,156.889 161.454,236.264 163.763,252.995 170.753,252.995 170.753,241.603 173.55,243.208 	
		"/>
	<path d="M266.777,125.854l-84.673,85.659l-2.49,23.307l70.334-73.612c0.052,5.551,0.052,5.551,0.052,5.551h5.184l1.455-12.551
		l3.153-3.294L266.777,125.854z"/>
	<path d="M263.152,121.494l6.887-6.118l-26.103-11.074l5.903-42.414L135.243,168.866v11.413l44.371,26.01l7.068-6.565
		l-29.127-17.451l2.895-2.604l28.541,17.099l6.441-6.245l-10.071-6.364l2.739-2.573l10.066,6.266l6.069-5.872l-27.444-17.062
		l2.89-2.604l26.879,16.72l4.873-4.35l-26.46-17.155l2.868-2.578l26.274,17.03l5.322-5.39l-26.201-16.503l2.869-2.6l25.673,16.171
		l5.913-5.416l-26.195-15.607l2.895-2.619l25.61,15.254l5.852-5.276l-26.118-14.791l2.92-2.631l25.912,14.678l4.649-4.702
		l-26.476-13.665l2.967-2.672l26.264,13.552l7.332-7.423l-26.377-12.646l2.982-2.705l26.165,12.541l4.883-4.942l-25.601-12.513
		l2.988-2.695L263.152,121.494z M169.667,153.12c-1.025-3.702,0.58-8.984,3.588-11.801l35.709-33.324
		c3.008-2.812,6.529-1.932,7.865,1.968l0.031,0.067c1.325,3.894-0.072,9.279-3.138,12.026l-36.641,32.793
		C174.016,157.609,170.692,156.822,169.667,153.12z"/>
</g>
<g>
</g>
<g>
</g>
<g>
</g>
<g>
</g>
<g>
</g>
<g>
</g>
<g>
</g>
<g>
</g>
<g>
</g>
<g>
</g>
<g>
</g>
<g>
</g>
<g>
</g>
<g>
</g>
<g>
</g>
</svg>
