<?xml version="1.0" encoding="utf-8"?>
<!-- Generator: Adobe Illustrator 16.0.0, SVG Export Plug-In . SVG Version: 6.00 Build 0)  -->
<!DOCTYPE svg PUBLIC "-//W3C//DTD SVG 1.1//EN" "http://www.w3.org/Graphics/SVG/1.1/DTD/svg11.dtd">
<svg version="1.1" id="Capa_1" xmlns="http://www.w3.org/2000/svg" xmlns:xlink="http://www.w3.org/1999/xlink" x="0px" y="0px"
	 width="612px" height="792px" viewBox="0 0 612 792" enable-background="new 0 0 612 792" xml:space="preserve">
<g opacity="0.5">
	<path fill="#222222" d="M96.826,590.102c0.118,7.524,3.265,14.96,8.586,20.283l83.018,83.018c5.43,5.435,13.066,8.598,20.751,8.598
		s15.322-3.163,20.755-8.599l276.646-276.646c5.435-5.432,8.599-13.069,8.599-20.754s-3.164-15.322-8.599-20.755L229.936,98.6
		c-5.433-5.435-13.07-8.599-20.755-8.599s-15.321,3.164-20.754,8.599l-83.018,83.019c-5.421,5.431-8.575,13.058-8.575,20.729
		c0,7.673,3.154,15.3,8.575,20.73l172.924,172.923L105.409,568.922C99.879,574.457,96.71,582.277,96.826,590.102L96.826,590.102z"/>
</g>
</svg>
