<?xml version="1.0" encoding="utf-8"?>
<!-- Generator: Adobe Illustrator 16.0.0, SVG Export Plug-In . SVG Version: 6.00 Build 0)  -->
<!DOCTYPE svg PUBLIC "-//W3C//DTD SVG 1.1//EN" "http://www.w3.org/Graphics/SVG/1.1/DTD/svg11.dtd">
<svg version="1.1" id="Capa_1" xmlns="http://www.w3.org/2000/svg" xmlns:xlink="http://www.w3.org/1999/xlink" x="0px" y="0px"
	 width="612px" height="612px" viewBox="0 0 612 612" enable-background="new 0 0 612 612" xml:space="preserve">
<g>
	<circle fill="#FF4500" cx="306" cy="306" r="306"/>
	<g>
		<path fill="#FFFFFF" d="M159.42,347.228c6.229,54.262,70.917,97.104,149.666,97.104c79.256,0,144.274-43.396,149.77-98.17
			c14.158-9.337,23.581-25.676,23.581-44.258c0-29.021-22.858-52.621-50.907-52.621c-9.852,0-18.992,2.974-26.801,7.984
			c-24.156-14.048-54.652-22.754-87.901-23.949l19.164-55.063l39.734,9.515c-0.109,1.316-0.366,2.583-0.366,3.922
			c0,21.905,17.816,39.711,39.674,39.711c21.905,0,39.723-17.806,39.723-39.711c0-21.905-17.816-39.711-39.723-39.711
			c-14.257,0-26.69,7.63-33.653,18.956l-56.807-13.584l-26.531,76.093c-33.078,1.688-63.231,10.91-86.954,25.326
			c0.477-0.344,0.893-0.717,1.371-1.041c-7.985-5.33-17.445-8.461-27.645-8.461c-28.073,0-50.915,23.6-50.915,52.621
			C133.899,321.332,144.221,338.134,159.42,347.228z M357.246,297.407c12.973,0,23.472,10.513,23.472,23.483
			c0,12.972-10.499,23.484-23.472,23.484c-12.972,0-23.496-10.513-23.496-23.484C333.75,307.92,344.274,297.407,357.246,297.407z
			 M353.502,373.109c4.063-2.704,9.545-1.566,12.237,2.483c2.691,4.087,1.565,9.569-2.509,12.249
			c-20.204,13.353-39.394,17.818-55.938,17.818c-33.299,0-56.226-18.051-56.556-18.319c-3.769-3.06-4.369-8.615-1.315-12.434
			c3.047-3.757,8.584-4.395,12.384-1.311C263.611,374.981,303.731,405.918,353.502,373.109z M256.274,297.384
			c12.978,0,23.496,10.513,23.496,23.496c0,12.971-10.518,23.496-23.496,23.496c-12.972,0-23.496-10.525-23.496-23.496
			C232.778,307.896,243.303,297.384,256.274,297.384z"/>
	</g>
</g>
</svg>
