<?xml version="1.0" encoding="utf-8"?>
<!-- Generator: Adobe Illustrator 16.0.0, SVG Export Plug-In . SVG Version: 6.00 Build 0)  -->
<!DOCTYPE svg PUBLIC "-//W3C//DTD SVG 1.1//EN" "http://www.w3.org/Graphics/SVG/1.1/DTD/svg11.dtd">
<svg version="1.1" id="Capa_1" xmlns="http://www.w3.org/2000/svg" xmlns:xlink="http://www.w3.org/1999/xlink" x="0px" y="0px"
	 width="285.25px" height="285.25px" viewBox="0 0 285.25 285.25" enable-background="new 0 0 285.25 285.25" xml:space="preserve">
<g>
	<path fill-rule="evenodd" clip-rule="evenodd" d="M0,149.253c0-4.309,0-8.616,0-12.924c0.085-0.573,0.219-1.143,0.249-1.718
		c0.487-9.361,1.85-18.599,4.314-27.635c10.753-39.424,34.007-69.184,69.602-89.183c16.438-9.236,34.179-14.633,52.94-16.615
		c2.96-0.313,5.927-0.565,8.891-0.845c4.308,0,8.616,0,12.924,0c0.575,0.087,1.147,0.223,1.726,0.252
		c8.131,0.412,16.174,1.512,24.076,3.439c38.502,9.39,68.298,30.948,89.281,64.519c11.265,18.021,17.813,37.759,20.065,58.903
		c0.314,2.958,0.566,5.921,0.848,8.882c0,4.308,0,8.616,0,12.924c-0.085,0.572-0.218,1.143-0.248,1.718
		c-0.495,9.409-1.921,18.677-4.35,27.776c-8.499,31.847-25.886,57.807-52.089,77.743c-20.829,15.847-44.383,25.078-70.419,27.909
		c-2.959,0.321-5.927,0.567-8.891,0.85c-4.308,0-8.616,0-12.924,0c-0.624-0.089-1.245-0.229-1.872-0.26
		c-7.591-0.377-15.112-1.361-22.5-3.102c-40.491-9.533-71.402-32.232-92.582-68.001c-10.178-17.188-16.086-35.878-18.197-55.75
		C0.53,155.179,0.279,152.214,0,149.253z M120.722,86.367c0-0.707,0-1.283,0-1.859c0-23.054,0-46.109,0-69.163
		c0-2.008-0.978-2.967-3.02-2.969c-0.881-0.001-1.762-0.002-2.643,0c-1.816,0.005-2.854,1.032-2.854,2.84
		c-0.001,25.404-0.001,50.808,0,76.211c0,1.906,1.008,2.897,2.942,2.897c22.125,0.001,44.249,0.001,66.373,0
		c1.934,0,2.94-0.992,2.94-2.9c0.001-24.915,0.001-49.829-0.001-74.744c0-1.806-1.038-2.832-2.856-2.836
		c-0.979-0.003-1.958-0.001-2.938,0c-2.038,0.002-3.016,0.963-3.017,2.972c0,22.614,0,45.228,0,67.842c0,0.562,0,1.124,0,1.708
		C157.262,86.367,139.106,86.367,120.722,86.367z M201.767,115.881c0.709,0,1.335,0,1.961,0c21.485,0,42.971,0.001,64.456-0.001
		c1.941,0,2.922-0.993,2.926-2.942c0.002-0.832,0.001-1.664-0.002-2.496c-0.006-1.902-1.016-2.896-2.948-2.896
		c-23.785,0-47.571,0-71.356,0c-1.932,0-2.94,0.996-2.94,2.903c-0.001,20.8-0.001,41.6,0.001,62.399
		c0,1.804,1.041,2.836,2.859,2.837c23.394,0.001,46.788,0.001,70.182-0.001c1.732,0,2.783-1.046,2.797-2.765
		c0.006-0.881,0.01-1.762,0.009-2.644c0-2.209-0.968-3.191-3.146-3.191c-20.947-0.001-41.895-0.001-62.841-0.001
		c-0.624,0-1.249,0-1.957,0C201.767,149.959,201.767,133.003,201.767,115.881z M91.994,165.901c-0.79,0-1.418,0-2.047,0
		c-21.39,0-42.779,0-64.169,0.001c-1.834,0.001-2.861,1.029-2.867,2.851c-0.003,0.931-0.005,1.86,0.002,2.79
		c0.013,1.592,1.109,2.676,2.726,2.676c23.837,0.002,47.674,0.002,71.511,0c1.615,0,2.712-1.087,2.713-2.688
		c0.003-20.803,0.002-41.605,0-62.407c0-1.622-1.08-2.751-2.648-2.751c-23.396-0.003-46.793-0.003-70.189,0
		c-1.63,0-2.694,1.073-2.71,2.705c-0.009,0.881-0.011,1.762-0.011,2.643c0,2.299,0.941,3.238,3.246,3.238
		c20.851,0,41.703,0,62.554,0c0.612,0,1.224,0,1.89,0C91.994,132.019,91.994,148.844,91.994,165.901z M168.289,195.094
		c0,0.729,0,1.31,0,1.892c0,18.405,0,36.811,0.002,55.217c0,1.726,1.052,2.783,2.759,2.792c0.783,0.004,1.566,0.003,2.35,0
		c1.807-0.006,2.836-1.038,2.836-2.858c0.001-20.608,0.001-41.217,0-61.826c0-1.83-1.021-2.871-2.822-2.871
		c-18.014,0-36.028,0.001-54.042,0.005c-1.7,0-2.76,1.072-2.76,2.788c-0.001,20.266-0.002,40.531,0,60.798
		c0,1.708,1.063,2.766,2.773,2.779c0.832,0.006,1.665,0.012,2.497,0.011c2.013-0.001,2.971-0.975,2.971-3.022
		c0.001-17.965,0-35.931,0-53.896c0-0.575,0-1.149,0-1.808C139.367,195.094,153.733,195.094,168.289,195.094z M77.182,92.746
		c-0.312-0.375-0.625-0.82-1.004-1.199c-9.408-9.421-18.813-18.845-28.265-28.221c-0.545-0.542-1.469-0.755-2.256-0.988
		c-1.534-0.455-2.416,0.6-3.34,1.555c-1.282,1.325-1.339,3.646-0.065,4.921c10.831,10.834,21.665,21.667,32.501,32.498
		c1.297,1.296,3.456,1.281,4.764-0.026c9.452-9.445,18.902-18.892,28.351-28.34c1.169-1.169,1.171-3.505-0.007-4.683
		C97.202,57.598,86.542,46.939,75.877,36.282c-0.273-0.272-0.553-0.598-0.895-0.73c-1.618-0.625-4.253,0.51-5.25,2.211
		c-0.611,1.042-0.091,3.464,0.969,4.523c9.14,9.135,18.279,18.27,27.417,27.406c0.375,0.375,0.731,0.768,1.032,1.085
		C91.854,78.074,84.628,85.3,77.182,92.746z M194.847,71.368c0.35-0.293,0.789-0.609,1.167-0.986
		c9.42-9.409,18.826-18.83,28.263-28.222c0.712-0.709,0.91-1.446,1.059-2.416c0.261-1.705-0.866-2.476-1.803-3.425
		c-1.058-1.071-3.549-1.098-4.604-0.043c-10.94,10.933-21.877,21.871-32.81,32.813c-1.068,1.07-1.032,3.359,0.056,4.449
		c9.512,9.524,19.026,19.045,28.543,28.564c1.095,1.095,3.465,1.079,4.582-0.037c10.698-10.691,21.392-21.387,32.084-32.084
		c0.24-0.24,0.527-0.479,0.653-0.777c0.658-1.557-0.438-4.185-2.161-5.267c-0.991-0.623-3.445-0.186-4.422,0.791
		c-9.17,9.174-18.339,18.348-27.511,27.521c-0.399,0.4-0.818,0.78-1.133,1.08C209.458,85.976,202.228,78.747,194.847,71.368z
		 M98.427,210.624c-0.414,0.337-0.866,0.643-1.245,1.021c-9.249,9.23-18.501,18.458-27.706,27.734
		c-0.542,0.546-0.768,1.467-0.995,2.255c-0.459,1.595,0.647,2.505,1.643,3.452c1.174,1.117,3.448,1.168,4.579,0.039
		c10.699-10.688,21.392-21.382,32.082-32.078c1.078-1.078,1.058-3.658-0.034-4.751c-9.271-9.278-18.545-18.554-27.823-27.824
		c-1.091-1.09-3.535-1.106-4.613-0.029c-10.455,10.447-20.912,20.894-31.333,31.375c-0.456,0.458-0.665,1.231-0.828,1.896
		c-0.384,1.571,0.409,2.654,1.554,3.647c1.473,1.277,3.665,1.299,5.052-0.088c9.033-9.033,18.063-18.066,27.096-27.099
		c0.374-0.374,0.764-0.733,1.097-1.053C84.084,196.263,91.133,203.321,98.427,210.624z M216.596,193.687
		c0.287,0.272,0.68,0.628,1.054,1.003c8.251,8.289,16.507,16.572,24.735,24.883c0.669,0.677,1.357,0.89,2.289,0.99
		c1.54,0.166,2.463-0.592,3.379-1.604c1.071-1.183,1.1-3.606-0.024-4.735c-9.631-9.676-19.266-19.349-28.902-29.02
		c-1.256-1.26-3.573-1.274-4.81-0.034c-8.396,8.421-16.788,16.845-25.178,25.271c-1.246,1.251-1.229,3.534,0.028,4.796
		c9.321,9.363,18.657,18.712,27.949,28.104c0.866,0.876,1.737,1.157,2.939,1.233c1.902,0.119,2.679-1.275,3.585-2.385
		c0.658-0.808-0.028-3.325-0.846-4.146c-8.082-8.11-16.166-16.221-24.246-24.333c-0.367-0.368-0.717-0.756-1.073-1.134
		C203.876,206.253,210.202,200.003,216.596,193.687z"/>
</g>
</svg>
