<?xml version="1.0" encoding="iso-8859-1"?>
<!-- Generator: Adobe Illustrator 18.1.1, SVG Export Plug-In . SVG Version: 6.00 Build 0)  -->
<svg version="1.1" id="Capa_1" xmlns="http://www.w3.org/2000/svg" xmlns:xlink="http://www.w3.org/1999/xlink" x="0px" y="0px"
	 viewBox="0 0 612.001 612.001" style="enable-background:new 0 0 612.001 612.001;" xml:space="preserve">
<g>
	<g id="Speaker">
		<path d="M469.2,0c-108.8,0-217.6,0-326.4,0C114.634,0,91.8,22.834,91.8,51c0,170,0,340,0,510c0,28.167,22.834,51,51,51
			c108.8,0,217.6,0,326.4,0c28.167,0,51-22.834,51-51c0-170,0-340,0-510C520.2,22.834,497.366,0,469.2,0z M306,62.287
			c38.577,0,69.851,31.273,69.851,69.851S344.577,201.988,306,201.988s-69.851-31.273-69.851-69.851
			C236.149,93.56,267.423,62.287,306,62.287z M142.407,38.509c6.899,0,12.492,5.593,12.492,12.492s-5.593,12.492-12.492,12.492
			c-6.899,0-12.492-5.593-12.492-12.492S135.508,38.509,142.407,38.509z M142.407,573.391c-6.899,0-12.492-5.593-12.492-12.492
			c0-6.899,5.593-12.492,12.492-12.492c6.899,0,12.492,5.593,12.492,12.492C154.899,567.799,149.306,573.391,142.407,573.391z
			 M306,569.925c-83.795,0-151.725-67.929-151.725-151.725S222.205,266.475,306,266.475s151.725,67.929,151.725,151.725
			S389.795,569.925,306,569.925z M469.593,573.391c-6.899,0-12.492-5.593-12.492-12.492c0-6.899,5.593-12.492,12.492-12.492
			c6.899,0,12.492,5.593,12.492,12.492C482.085,567.799,476.492,573.391,469.593,573.391z M469.593,63.492
			c-6.899,0-12.492-5.593-12.492-12.492s5.593-12.492,12.492-12.492c6.899,0,12.492,5.593,12.492,12.492
			S476.492,63.492,469.593,63.492z"/>
		<circle cx="306" cy="132.137" r="22.305"/>
		<circle cx="306" cy="418.2" r="48.45"/>
	</g>
</g>
<g>
</g>
<g>
</g>
<g>
</g>
<g>
</g>
<g>
</g>
<g>
</g>
<g>
</g>
<g>
</g>
<g>
</g>
<g>
</g>
<g>
</g>
<g>
</g>
<g>
</g>
<g>
</g>
<g>
</g>
</svg>
