<?xml version="1.0" encoding="iso-8859-1"?>
<!-- Generator: Adobe Illustrator 16.0.0, SVG Export Plug-In . SVG Version: 6.00 Build 0)  -->
<!DOCTYPE svg PUBLIC "-//W3C//DTD SVG 1.1//EN" "http://www.w3.org/Graphics/SVG/1.1/DTD/svg11.dtd">
<svg version="1.1" id="Capa_1" xmlns="http://www.w3.org/2000/svg" xmlns:xlink="http://www.w3.org/1999/xlink" x="0px" y="0px"
	 width="319.909px" height="319.909px" viewBox="0 0 319.909 319.909" style="enable-background:new 0 0 319.909 319.909;"
	 xml:space="preserve">
<g>
	<path d="M304.003,57.44h-61.206c-18.242,4.353-25.471,41.062-27.801,57.415c-1.057,7.449-7.426,13.287-14.488,13.287h-81.315
		c-7.099,0-13.093-5.949-13.626-13.536c-3.288-46.07-26.975-55.349-34.748-57.167H15.907C7.12,57.44,0,64.561,0,73.348v173.214
		c0,8.787,7.12,15.907,15.907,15.907h288.096c8.787,0,15.906-7.12,15.906-15.907V73.348C319.909,64.561,312.79,57.44,304.003,57.44z
		 M116.389,248.886H94.913V214.97h7.143v-70.925h6.532v70.93h7.796v33.911H116.389z M12.635,144.045H26.31v70.93h7.796v33.922
		H12.635V144.045z M40.066,214.975h7.141v-70.93h6.532v70.93h7.795v33.922H40.066V214.975z M67.489,214.975h7.143v-70.93h6.532
		v70.93h7.793v33.922H67.489V214.975z M121.691,214.975h7.798v-70.93h5.875v70.93h7.795v33.922h-21.468V214.975z M149.114,214.975
		h7.144v-70.93h6.532v70.93h7.793v33.922h-21.469V214.975z M176.538,214.975h7.141v-70.93h6.534v70.93h7.794v33.922h-21.469V214.975
		z M203.967,214.975h7.146v-70.93h6.358v70.93h7.964v33.922h-21.468V214.975z M286.185,214.975h7.136v-70.93h14.333v104.841h-21.469
		V214.975z M231.224,214.975h7.141v-70.93h6.53v70.93h7.798v33.922h-21.469V214.975z M258.647,214.975h7.141v-70.93h6.633v70.93
		h7.695v33.922h-21.469V214.975z M252.946,98.392c0-12.298,9.968-22.271,22.271-22.271h6.473c12.293,0,22.271,9.968,22.271,22.271
		v6.468c0,12.298-9.968,22.271-22.271,22.271h-6.473c-12.299,0-22.271-9.968-22.271-22.271V98.392z M224.368,114.7
		c0-5.318,4.309-9.629,9.626-9.629h2.802c5.317,0,9.631,4.311,9.631,9.629v2.802c0,5.317-4.313,9.628-9.631,9.628h-2.802
		c-5.317,0-9.626-4.311-9.626-9.628V114.7z M75.099,114.7c0-5.318,4.311-9.629,9.628-9.629h2.799c5.318,0,9.631,4.311,9.631,9.629
		v2.802c0,5.317-4.313,9.628-9.631,9.628h-2.793c-5.318,0-9.629-4.311-9.629-9.628V114.7H75.099z M17.572,98.392
		c0-12.298,9.968-22.271,22.271-22.271h6.473c12.298,0,22.271,9.968,22.271,22.271v6.468c0,12.298-9.968,22.271-22.271,22.271
		h-6.478c-12.298,0-22.271-9.968-22.271-22.271v-6.468H17.572z"/>
	<path d="M110.851,114.224c0.347,4.832,4.011,8.611,8.342,8.611h81.304c4.412,0,8.555-3.92,9.238-8.728
		c2.547-17.859,8.538-44.954,22.068-56.667H83.572C94.69,64.473,108.412,80.002,110.851,114.224z"/>
</g>
<g>
</g>
<g>
</g>
<g>
</g>
<g>
</g>
<g>
</g>
<g>
</g>
<g>
</g>
<g>
</g>
<g>
</g>
<g>
</g>
<g>
</g>
<g>
</g>
<g>
</g>
<g>
</g>
<g>
</g>
</svg>
