<?xml version="1.0" encoding="utf-8"?>
<!-- Generator: Adobe Illustrator 16.0.0, SVG Export Plug-In . SVG Version: 6.00 Build 0)  -->
<!DOCTYPE svg PUBLIC "-//W3C//DTD SVG 1.1//EN" "http://www.w3.org/Graphics/SVG/1.1/DTD/svg11.dtd">
<svg version="1.1" id="Capa_1" xmlns="http://www.w3.org/2000/svg" xmlns:xlink="http://www.w3.org/1999/xlink" x="0px" y="0px"
	 width="612px" height="792px" viewBox="0 0 612 792" enable-background="new 0 0 612 792" xml:space="preserve">
<g opacity="0.5">
	<path fill="#222222" d="M500.102,605.175c7.524-0.118,14.96-3.265,20.283-8.586l83.018-83.018
		c5.435-5.43,8.598-13.066,8.598-20.751s-3.163-15.322-8.599-20.755L326.755,195.419c-5.432-5.435-13.069-8.599-20.754-8.599
		c-7.685,0-15.322,3.164-20.755,8.599L8.599,472.065C3.165,477.498,0,485.136,0,492.82s3.164,15.321,8.599,20.754l83.019,83.018
		c5.431,5.421,13.058,8.575,20.729,8.575c7.673,0,15.3-3.154,20.73-8.575L306,423.668l172.921,172.924
		C484.457,602.122,492.277,605.291,500.102,605.175L500.102,605.175z"/>
</g>
</svg>
