<?xml version="1.0" encoding="iso-8859-1"?>
<!-- Generator: Adobe Illustrator 19.0.0, SVG Export Plug-In . SVG Version: 6.00 Build 0)  -->
<svg version="1.1" id="Layer_1" xmlns="http://www.w3.org/2000/svg" xmlns:xlink="http://www.w3.org/1999/xlink" x="0px" y="0px"
	 viewBox="0 0 459.537 459.537" style="enable-background:new 0 0 459.537 459.537;" xml:space="preserve">
<g>
	<g>
		<g>
			<path d="M295.991,65.748v55.525c59.608,0.261,108.021,48.828,108.021,108.496s-48.414,108.235-108.021,108.496v55.525
				c90.224-0.261,163.546-73.736,163.546-164.02C459.536,139.485,386.214,66.009,295.991,65.748z"/>
			<path d="M383.603,229.768c0-48.414-39.259-87.82-87.613-88.081v55.525c17.737,0.259,32.088,14.759,32.088,32.556
				s-14.352,32.297-32.088,32.556v55.525C344.344,317.588,383.603,278.181,383.603,229.768z"/>
			<path d="M249.327,39.832c-9.429-4.574-20.676-3.385-28.951,3.137l-103.46,81.548c-19.767,0-77.052,0-87.431,0
				C13.201,124.517,0,137.718,0,154.002c0,1.442,0,149.897,0,151.532c0,16.284,13.201,29.486,29.486,29.486
				c10.39,0,67.667,0,87.431,0l103.46,81.548c8.254,6.506,19.498,7.722,28.951,3.137c9.455-4.586,15.458-14.171,15.458-24.679
				V64.511C264.785,54.002,258.782,44.418,249.327,39.832z"/>
		</g>
	</g>
</g>
<g>
</g>
<g>
</g>
<g>
</g>
<g>
</g>
<g>
</g>
<g>
</g>
<g>
</g>
<g>
</g>
<g>
</g>
<g>
</g>
<g>
</g>
<g>
</g>
<g>
</g>
<g>
</g>
<g>
</g>
</svg>
