<?xml version="1.0" encoding="utf-8"?>
<!-- Generator: Adobe Illustrator 16.0.0, SVG Export Plug-In . SVG Version: 6.00 Build 0)  -->
<!DOCTYPE svg PUBLIC "-//W3C//DTD SVG 1.1//EN" "http://www.w3.org/Graphics/SVG/1.1/DTD/svg11.dtd">
<svg version="1.1" id="Layer_1" xmlns="http://www.w3.org/2000/svg" xmlns:xlink="http://www.w3.org/1999/xlink" x="0px" y="0px"
	 width="50px" height="50px" viewBox="0 -10 128 128" xml:space="preserve">
<g>
	<path fill-rule="evenodd" clip-rule="evenodd" d="M125.462,1.223c0,0.539,0,1.078,0,1.617c-0.001,13.837-0.052,27.674,0.047,41.51
		c0.015,2.136-1.289,3.371-2.306,4.824c-4.324,6.182-8.713,12.317-13.101,18.454c-2.555,3.574-5.173,7.102-7.722,10.679
		c-3.451,4.844-6.85,9.724-10.296,14.571c-2.475,3.482-4.989,6.938-7.488,10.404c-0.956,1.325-1.928,2.64-2.866,3.978
		c-0.117,0.167-0.068,0.451-0.102,0.729c-0.34,0-0.732,0-0.958,0c-0.192-0.437-0.288-0.812-0.497-1.105
		c-3.797-5.333-7.612-10.653-11.415-15.983c-2.944-4.127-5.866-8.27-8.815-12.392c-4.204-5.875-8.417-11.743-12.648-17.599
		c-0.521-0.721-0.569-1.312-0.034-2.053c3.485-4.818,6.943-9.658,10.408-14.491c1.442-2.012,2.862-4.04,4.33-6.033
		c0.733-0.995,1.107-0.99,1.811-0.006c3.533,4.935,7.05,9.88,10.567,14.826c1.99,2.798,3.969,5.604,5.956,8.404
		c0.62,0.873,1.185,0.442,1.625-0.149c1.094-1.474,2.131-2.99,3.201-4.483c3.859-5.386,7.731-10.764,11.581-16.157
		c3.34-4.68,6.65-9.382,9.986-14.065c3.8-5.333,7.619-10.652,11.419-15.984c2.016-2.828,4.004-5.675,6.019-8.504
		c0.281-0.394,0.638-0.734,0.959-1.1C125.237,1.151,125.35,1.187,125.462,1.223z"/>
	<path fill-rule="evenodd" clip-rule="evenodd" d="M45.178,108.005c-0.263,0-0.62,0-0.647,0c-2.166-3.056-4.209-5.942-6.257-8.827
		c-2.103-2.963-4.203-5.928-6.316-8.883c-2.114-2.954-4.248-5.896-6.364-8.848c-2.115-2.953-4.222-5.911-6.329-8.87
		s-4.209-5.922-6.316-8.882c-2.106-2.959-4.157-5.961-6.339-8.863C4.48,52.001,2.721,48.873,0,46.001C0,31.33,0,16.18,0,0.712
		c0.597,0.509,1.104,0.796,1.412,1.227C5.106,7.1,8.767,12.286,12.445,17.459c4.649,6.54,9.299,13.08,13.964,19.608
		c4.224,5.911,8.479,11.8,12.703,17.71c3.389,4.741,6.745,9.507,10.131,14.25c2.993,4.191,6.01,8.364,9.013,12.549
		c0.676,0.94,1.327,1.898,2.007,2.836c0.483,0.667,0.505,1.291,0.011,1.979c-3.125,4.34-6.238,8.689-9.348,13.041
		c-1.741,2.436-3.477,4.875-5.192,7.328C45.491,107.106,45.379,107.544,45.178,108.005z"/>
</g>
</svg>
